<svg data-v-423bf9ae="" xmlns="http://www.w3.org/2000/svg" viewBox="0 0 341.78054749199447 398" class="iconAboveSlogan"><!----><!----><!----><g data-v-423bf9ae="" id="ba81a575-d945-42a7-a1ed-b78ff92b95e8" fill="black" transform="matrix(4.1407868148896405,0,0,4.1407868148896405,-4.596277532651328,288.9406930911186)"><path d="M7.08 13.13L7.08 13.13Q7.73 15.12 8.49 16.58L8.49 16.58L8.49 16.58Q9.25 18.03 9.93 18.54L9.93 18.54L9.93 18.54Q9.67 18.79 9.16 18.98L9.16 18.98L9.16 18.98Q8.65 19.18 8.25 19.18L8.25 19.18L8.25 19.18Q7.67 19.18 7.28 18.97L7.28 18.97L7.28 18.97Q6.89 18.76 6.56 18.26L6.56 18.26L6.56 18.26Q6.23 17.77 5.87 16.84L5.87 16.84L4.91 14.42L3.89 15.02L3.89 15.02Q3.63 16.65 3.63 17.12L3.63 17.12L3.63 17.12Q3.63 17.67 3.72 18.03L3.72 18.03L3.72 18.03Q3.81 18.38 4.00 18.66L4.00 18.66L4.00 18.66Q3.33 19.19 2.53 19.19L2.53 19.19L2.53 19.19Q1.78 19.19 1.44 18.82L1.44 18.82L1.44 18.82Q1.11 18.44 1.11 17.60L1.11 17.60L1.11 17.60Q1.11 16.88 1.30 15.46L1.30 15.46L1.30 15.46Q1.50 14.03 2.06 10.77L2.06 10.77L1.44 9.52L1.44 9.52Q2.77 8.67 3.85 8.67L3.85 8.67L3.85 8.67Q4.75 8.67 4.75 9.76L4.75 9.76L4.75 9.76Q4.75 10.00 4.59 10.95L4.59 10.95L4.59 10.95Q4.44 11.90 4.26 12.96L4.26 12.96L4.14 13.58L4.70 13.16L4.70 13.16Q6.05 12.15 6.67 11.34L6.67 11.34L6.67 11.34Q7.29 10.53 7.29 9.77L7.29 9.77L7.29 9.77Q7.29 9.49 7.18 9.18L7.18 9.18L7.18 9.18Q7.98 8.68 8.75 8.68L8.75 8.68L8.75 8.68Q9.32 8.68 9.65 8.97L9.65 8.97L9.65 8.97Q9.97 9.27 9.97 9.83L9.97 9.83L9.97 9.83Q9.97 10.58 9.28 11.38L9.28 11.38L9.28 11.38Q8.58 12.18 7.08 13.13L7.08 13.13ZM12.45 19.18L12.45 19.18Q11.73 19.18 11.40 18.80L11.40 18.80L11.40 18.80Q11.07 18.42 11.07 17.67L11.07 17.67L11.07 17.67Q11.07 17.14 11.39 15.43L11.39 15.43L11.39 15.43Q11.70 13.72 12.10 12.14L12.10 12.14L11.40 11.19L11.40 11.19Q12.38 10.44 13.17 10.44L13.17 10.44L13.17 10.44Q13.68 10.44 13.92 10.70L13.92 10.70L13.92 10.70Q14.17 10.95 14.17 11.40L14.17 11.40L14.17 11.40Q14.17 11.84 14.04 12.31L14.04 12.31L14.04 12.31Q13.92 12.77 13.68 13.37L13.68 13.37L13.82 13.44L13.82 13.44Q14.41 11.91 15.02 11.17L15.02 11.17L15.02 11.17Q15.62 10.43 16.49 10.43L16.49 10.43L16.49 10.43Q17.07 10.43 17.39 10.74L17.39 10.74L17.39 10.74Q17.71 11.05 17.71 11.59L17.71 11.59L17.71 11.59Q17.71 12.22 17.28 12.62L17.28 12.62L17.28 12.62Q16.86 13.02 16.10 13.02L16.10 13.02L16.10 13.02Q15.41 13.02 14.81 13.64L14.81 13.64L14.81 13.64Q14.21 14.27 13.85 15.32L13.85 15.32L13.85 15.32Q13.48 16.37 13.48 17.54L13.48 17.54L13.48 17.54Q13.48 18.26 13.73 18.61L13.73 18.61L13.73 18.61Q13.12 19.18 12.45 19.18L12.45 19.18ZM20.87 9.49L20.87 9.49Q20.30 9.49 19.94 9.22L19.94 9.22L19.94 9.22Q19.59 8.95 19.59 8.47L19.59 8.47L19.59 8.47Q19.59 7.88 20.09 7.51L20.09 7.51L20.09 7.51Q20.59 7.14 21.22 7.14L21.22 7.14L21.22 7.14Q21.80 7.14 22.16 7.41L22.16 7.41L22.16 7.41Q22.51 7.69 22.51 8.15L22.51 8.15L22.51 8.15Q22.51 8.74 22.03 9.11L22.03 9.11L22.03 9.11Q21.55 9.49 20.87 9.49L20.87 9.49ZM19.87 19.18L19.87 19.18Q19.15 19.18 18.82 18.82L18.82 18.82L18.82 18.82Q18.49 18.47 18.49 17.74L18.49 17.74L18.49 17.74Q18.49 17.18 18.75 15.83L18.75 15.83L18.75 15.83Q19.01 14.48 19.50 12.29L19.50 12.29L18.79 11.30L18.79 11.30Q19.32 10.91 19.94 10.67L19.94 10.67L19.94 10.67Q20.55 10.43 21.08 10.43L21.08 10.43L21.08 10.43Q21.60 10.43 21.82 10.65L21.82 10.65L21.82 10.65Q22.04 10.86 22.04 11.37L22.04 11.37L22.04 11.37Q22.04 11.56 21.71 12.92L21.71 12.92L21.71 12.92Q21.35 14.43 21.13 15.58L21.13 15.58L21.13 15.58Q20.90 16.72 20.90 17.54L20.90 17.54L20.90 17.54Q20.90 18.33 21.27 18.61L21.27 18.61L21.27 18.61Q20.61 19.18 19.87 19.18L19.87 19.18ZM26.66 19.18L26.66 19.18Q25.00 19.18 24.19 18.75L24.19 18.75L24.19 18.75Q23.37 18.31 23.37 17.56L23.37 17.56L23.37 17.56Q23.37 17.23 23.56 16.90L23.56 16.90L23.56 16.90Q23.76 16.56 24.11 16.32L24.11 16.32L24.11 16.32Q24.49 17.01 25.10 17.39L25.10 17.39L25.10 17.39Q25.70 17.77 26.53 17.77L26.53 17.77L26.53 17.77Q27.20 17.77 27.74 17.49L27.74 17.49L27.74 17.49Q28.28 17.21 28.28 16.69L28.28 16.69L28.28 16.69Q28.28 16.37 27.90 16.16L27.90 16.16L27.90 16.16Q27.51 15.96 26.70 15.71L26.70 15.71L26.70 15.71Q25.82 15.43 25.24 15.17L25.24 15.17L25.24 15.17Q24.67 14.91 24.26 14.43L24.26 14.43L24.26 14.43Q23.84 13.96 23.84 13.23L23.84 13.23L23.84 13.23Q23.84 11.87 25.07 11.15L25.07 11.15L25.07 11.15Q26.31 10.43 28.21 10.43L28.21 10.43L28.21 10.43Q29.55 10.43 30.35 10.84L30.35 10.84L30.35 10.84Q31.15 11.24 31.15 11.90L31.15 11.90L31.15 11.90Q31.15 12.49 30.74 12.82L30.74 12.82L30.74 12.82Q30.34 13.15 29.74 13.15L29.74 13.15L29.74 13.15Q29.18 13.15 28.72 12.79L28.72 12.79L28.72 12.79Q28.27 12.43 28.01 11.76L28.01 11.76L28.01 11.76Q27.22 11.83 26.70 12.16L26.70 12.16L26.70 12.16Q26.18 12.49 26.18 12.95L26.18 12.95L26.18 12.95Q26.18 13.30 26.56 13.50L26.56 13.50L26.56 13.50Q26.94 13.71 27.79 13.99L27.79 13.99L27.79 13.99Q28.66 14.27 29.23 14.53L29.23 14.53L29.23 14.53Q29.81 14.78 30.21 15.27L30.21 15.27L30.21 15.27Q30.62 15.75 30.62 16.49L30.62 16.49L30.62 16.49Q30.62 17.35 30.04 17.96L30.04 17.96L30.04 17.96Q29.47 18.56 28.57 18.87L28.57 18.87L28.57 18.87Q27.66 19.18 26.66 19.18L26.66 19.18ZM34.02 19.18L34.02 19.18Q33.31 19.18 32.98 18.82L32.98 18.82L32.98 18.82Q32.65 18.45 32.65 17.74L32.65 17.74L32.65 17.74Q32.65 16.80 33.67 11.63L33.67 11.63L34.02 9.80L33.29 8.83L33.29 8.83Q33.80 8.46 34.41 8.22L34.41 8.22L34.41 8.22Q35.01 7.98 35.52 7.98L35.52 7.98L35.52 7.98Q36.06 7.98 36.30 8.19L36.30 8.19L36.30 8.19Q36.54 8.40 36.54 8.89L36.54 8.89L36.54 8.89Q36.54 9.20 36.44 9.67L36.44 9.67L36.44 9.67Q36.34 10.14 36.12 11.07L36.12 11.07L36.12 11.07Q36.06 11.34 35.91 11.97L35.91 11.97L35.91 11.97Q35.76 12.60 35.64 13.15L35.64 13.15L35.78 13.22L35.78 13.22Q36.58 11.80 37.61 11.12L37.61 11.12L37.61 11.12Q38.64 10.43 39.70 10.43L39.70 10.43L39.70 10.43Q40.59 10.43 41.01 10.86L41.01 10.86L41.01 10.86Q41.44 11.28 41.44 12.19L41.44 12.19L41.44 12.19Q41.44 12.70 41.34 13.23L41.34 13.23L41.34 13.23Q41.24 13.76 41.02 14.69L41.02 14.69L41.02 14.69Q40.80 15.60 40.67 16.25L40.67 16.25L40.67 16.25Q40.54 16.91 40.54 17.54L40.54 17.54L40.54 17.54Q40.54 17.88 40.61 18.17L40.61 18.17L40.61 18.17Q40.68 18.45 40.80 18.61L40.80 18.61L40.80 18.61Q40.18 19.18 39.51 19.18L39.51 19.18L39.51 19.18Q38.79 19.18 38.47 18.82L38.47 18.82L38.47 18.82Q38.14 18.45 38.14 17.74L38.14 17.74L38.14 17.74Q38.14 17.18 38.26 16.54L38.26 16.54L38.26 16.54Q38.39 15.90 38.63 15.02L38.63 15.02L38.63 15.02Q38.82 14.25 38.91 13.82L38.91 13.82L38.91 13.82Q39.00 13.38 39.00 13.03L39.00 13.03L39.00 13.03Q39.00 12.24 38.37 12.24L38.37 12.24L38.37 12.24Q37.72 12.24 36.93 12.94L36.93 12.94L36.93 12.94Q36.15 13.64 35.60 14.85L35.60 14.85L35.60 14.85Q35.06 16.07 35.06 17.54L35.06 17.54L35.06 17.54Q35.06 18.28 35.29 18.61L35.29 18.61L35.29 18.61Q34.71 19.18 34.02 19.18L34.02 19.18ZM45.72 9.49L45.72 9.49Q45.15 9.49 44.79 9.22L44.79 9.22L44.79 9.22Q44.44 8.95 44.44 8.47L44.44 8.47L44.44 8.47Q44.44 7.88 44.94 7.51L44.94 7.51L44.94 7.51Q45.44 7.14 46.07 7.14L46.07 7.14L46.07 7.14Q46.65 7.14 47.01 7.41L47.01 7.41L47.01 7.41Q47.36 7.69 47.36 8.15L47.36 8.15L47.36 8.15Q47.36 8.74 46.88 9.11L46.88 9.11L46.88 9.11Q46.40 9.49 45.72 9.49L45.72 9.49ZM44.72 19.18L44.72 19.18Q44.00 19.18 43.67 18.82L43.67 18.82L43.67 18.82Q43.34 18.47 43.34 17.74L43.34 17.74L43.34 17.74Q43.34 17.18 43.60 15.83L43.60 15.83L43.60 15.83Q43.86 14.48 44.35 12.29L44.35 12.29L43.64 11.30L43.64 11.30Q44.17 10.91 44.79 10.67L44.79 10.67L44.79 10.67Q45.40 10.43 45.93 10.43L45.93 10.43L45.93 10.43Q46.45 10.43 46.67 10.65L46.67 10.65L46.67 10.65Q46.89 10.86 46.89 11.37L46.89 11.37L46.89 11.37Q46.89 11.56 46.56 12.92L46.56 12.92L46.56 12.92Q46.20 14.43 45.98 15.58L45.98 15.58L45.98 15.58Q45.75 16.72 45.75 17.54L45.75 17.54L45.75 17.54Q45.75 18.33 46.12 18.61L46.12 18.61L46.12 18.61Q45.46 19.18 44.72 19.18L44.72 19.18ZM58.59 9.76L58.59 9.76Q58.59 10.15 58.11 12.82L58.11 12.82L58.11 12.82Q57.81 14.55 57.64 15.62L57.64 15.62L57.64 15.62Q57.47 16.69 57.47 17.12L57.47 17.12L57.47 17.12Q57.47 17.67 57.56 18.03L57.56 18.03L57.56 18.03Q57.65 18.40 57.86 18.66L57.86 18.66L57.86 18.66Q57.15 19.19 56.38 19.19L56.38 19.19L56.38 19.19Q55.62 19.19 55.29 18.82L55.29 18.82L55.29 18.82Q54.95 18.44 54.95 17.60L54.95 17.60L54.95 17.60Q54.95 16.81 55.23 14.97L55.23 14.97L51.56 14.97L51.56 14.97Q51.28 16.58 51.28 17.12L51.28 17.12L51.28 17.12Q51.28 17.67 51.37 18.03L51.37 18.03L51.37 18.03Q51.46 18.38 51.66 18.66L51.66 18.66L51.66 18.66Q50.96 19.19 50.19 19.19L50.19 19.19L50.19 19.19Q49.43 19.19 49.10 18.82L49.10 18.82L49.10 18.82Q48.76 18.44 48.76 17.60L48.76 17.60L48.76 17.60Q48.76 16.90 48.96 15.51L48.96 15.51L48.96 15.51Q49.15 14.13 49.71 10.77L49.71 10.77L49.10 9.52L49.10 9.52Q50.43 8.67 51.51 8.67L51.51 8.67L51.51 8.67Q52.40 8.67 52.40 9.76L52.40 9.76L52.40 9.76Q52.40 10.12 51.88 13.03L51.88 13.03L51.80 13.55L55.45 13.55L55.92 10.77L55.29 9.52L55.29 9.52Q56.62 8.67 57.69 8.67L57.69 8.67L57.69 8.67Q58.59 8.67 58.59 9.76L58.59 9.76ZM67.84 12.45L67.84 12.45Q67.84 13.41 67.19 14.11L67.19 14.11L67.19 14.11Q66.53 14.81 65.28 15.19L65.28 15.19L65.28 15.19Q64.04 15.57 62.31 15.58L62.31 15.58L62.31 15.76L62.31 15.76Q62.31 16.79 62.68 17.36L62.68 17.36L62.68 17.36Q63.04 17.93 63.69 17.93L63.69 17.93L63.69 17.93Q64.47 17.93 64.97 17.39L64.97 17.39L64.97 17.39Q65.48 16.84 65.52 15.95L65.52 15.95L65.52 15.95Q66.25 15.95 66.63 16.22L66.63 16.22L66.63 16.22Q67.02 16.49 67.02 17.01L67.02 17.01L67.02 17.01Q67.02 17.60 66.54 18.10L66.54 18.10L66.54 18.10Q66.07 18.59 65.25 18.89L65.25 18.89L65.25 18.89Q64.43 19.18 63.43 19.18L63.43 19.18L63.43 19.18Q61.80 19.18 60.87 18.26L60.87 18.26L60.87 18.26Q59.95 17.33 59.95 15.71L59.95 15.71L59.95 15.71Q59.95 14.21 60.64 13.01L60.64 13.01L60.64 13.01Q61.33 11.80 62.55 11.12L62.55 11.12L62.55 11.12Q63.77 10.43 65.28 10.43L65.28 10.43L65.28 10.43Q66.50 10.43 67.17 10.96L67.17 10.96L67.17 10.96Q67.84 11.49 67.84 12.45L67.84 12.45ZM64.90 11.77L64.90 11.77Q64.06 11.77 63.37 12.59L63.37 12.59L63.37 12.59Q62.68 13.40 62.43 14.63L62.43 14.63L62.43 14.63Q64.02 14.56 64.90 14.04L64.90 14.04L64.90 14.04Q65.77 13.51 65.77 12.61L65.77 12.61L65.77 12.61Q65.77 12.24 65.53 12.01L65.53 12.01L65.53 12.01Q65.30 11.77 64.90 11.77L64.90 11.77ZM70.80 19.18L70.80 19.18Q70.13 19.18 69.81 18.77L69.81 18.77L69.81 18.77Q69.50 18.37 69.50 17.51L69.50 17.51L69.50 17.51Q69.50 16.84 69.84 14.74L69.84 14.74L69.84 14.74Q70.18 12.64 70.69 9.80L70.69 9.80L69.96 8.83L69.96 8.83Q70.46 8.46 71.07 8.22L71.07 8.22L71.07 8.22Q71.68 7.98 72.18 7.98L72.18 7.98L72.18 7.98Q72.73 7.98 72.97 8.19L72.97 8.19L72.97 8.19Q73.21 8.40 73.21 8.89L73.21 8.89L73.21 8.89Q73.21 9.18 73.10 9.74L73.10 9.74L73.10 9.74Q73.00 10.30 72.79 11.28L72.79 11.28L72.79 11.28Q72.38 13.12 72.14 14.59L72.14 14.59L72.14 14.59Q71.89 16.06 71.89 17.35L71.89 17.35L71.89 17.35Q71.89 17.84 71.98 18.12L71.98 18.12L71.98 18.12Q72.07 18.40 72.27 18.61L72.27 18.61L72.27 18.61Q71.96 18.89 71.57 19.03L71.57 19.03L71.57 19.03Q71.18 19.18 70.80 19.18L70.80 19.18ZM81.06 10.43L81.06 10.43Q81.83 10.43 82.42 10.84L82.42 10.84L82.42 10.84Q83.01 11.24 83.33 11.99L83.33 11.99L83.33 11.99Q83.65 12.74 83.65 13.72L83.65 13.72L83.65 13.72Q83.65 15.19 82.94 16.35L82.94 16.35L82.94 16.35Q82.24 17.51 80.99 18.17L80.99 18.17L80.99 18.17Q79.74 18.83 78.16 18.83L78.16 18.83L78.16 18.83Q77.55 18.83 76.99 18.72L76.99 18.72L76.99 18.72Q76.94 19.26 76.94 19.81L76.94 19.81L76.94 19.81Q76.94 20.26 77.04 20.55L77.04 20.55L77.04 20.55Q77.13 20.83 77.32 21.06L77.32 21.06L77.32 21.06Q77.03 21.32 76.64 21.48L76.64 21.48L76.64 21.48Q76.24 21.63 75.85 21.63L75.85 21.63L75.85 21.63Q75.18 21.63 74.87 21.27L74.87 21.27L74.87 21.27Q74.55 20.90 74.55 20.12L74.55 20.12L74.55 20.12Q74.55 19.60 74.90 17.31L74.90 17.31L74.90 17.31Q75.25 15.02 75.74 12.25L75.74 12.25L75.03 11.28L75.03 11.28Q75.56 10.89 76.15 10.66L76.15 10.66L76.15 10.66Q76.75 10.43 77.25 10.43L77.25 10.43L77.25 10.43Q77.80 10.43 78.03 10.64L78.03 10.64L78.03 10.64Q78.26 10.85 78.26 11.34L78.26 11.34L78.26 11.34Q78.26 11.69 78.09 12.56L78.09 12.56L78.23 12.63L78.23 12.63Q78.67 11.59 79.41 11.01L79.41 11.01L79.41 11.01Q80.15 10.43 81.06 10.43L81.06 10.43ZM77.08 17.75L77.08 17.75Q78.32 17.70 79.28 17.21L79.28 17.21L79.28 17.21Q80.23 16.73 80.77 15.91L80.77 15.91L80.77 15.91Q81.30 15.09 81.30 14.07L81.30 14.07L81.30 14.07Q81.30 13.29 80.97 12.85L80.97 12.85L80.97 12.85Q80.64 12.42 80.04 12.42L80.04 12.42L80.04 12.42Q79.16 12.42 78.37 13.73L78.37 13.73L78.37 13.73Q77.59 15.05 77.14 17.29L77.14 17.29L77.14 17.29Q77.11 17.44 77.08 17.75L77.08 17.75Z"></path></g><!----><g data-v-423bf9ae="" id="2a0ee54a-557b-46a7-b3bd-8d44a6798eab" transform="matrix(1.8424196031358506,0,0,1.8424196031358506,-12.42867125472273,-31.074082984176414)" stroke="none" fill="black"><path d="M168.8 121c2.4-14.2 3.7-28.6 3.3-43.2-.1-3.6-.4-7.3-.8-10.9-.1-1-.2-1.8-.4-2.9-.1-.3-.1-.6-.2-1l-.3-1.2-.4-1.2c-.2-.3-.3-.7-.5-1-.7-1.3-1.6-2.2-2.9-2.6-1.4-.4-2.7-.1-3.8.7-1.1.8-2.2 2.1-3 3.6l-.3.5-.2.4-.4.7-.6 1.3c-.8 1.7-1.5 3.5-2.1 5.2-1.3 3.5-2.3 7-3.3 10.5-.5 1.8-.9 3.6-1.3 5.4l-1 5.2c-.7 3.5-1.5 6.9-2.5 10.2-1.9 6.6-4.8 12.7-8.8 18.2-1.2 1.7-2.5 3.3-3.9 5l-.3.4-1.8-1.7c-.8-.8-1.7-1.5-2.5-2.3-1.7-1.5-3.5-2.9-5.5-4.2-2-1.3-4-2.6-6.6-3.4-1.3-.4-2.7-.8-4.3-.8-1.6 0-3.4.4-4.9 1.4-.7.5-1.4 1-1.9 1.7-.3.3-.5.6-.7.9-.2.3-.5.7-.7 1.2-.5 1-.7 2.2-.6 3.1 0 .9.2 1.7.4 2.4.8 2.8 2.1 4.8 3.3 6.8 1.3 2 2.6 3.8 4 5.5l2 2.6.9 1.2 1.1 1.5c3.1 3.8 6.8 6.6 10.2 9.3 3.4 2.7 6.7 5.3 9 8.3l.8 1.1c.2.4.4.7.6 1.1.4.8.7 1.7 1 2.6.6 1.9 1 3.9 1.4 5.9.7 3.9 1.5 7.7 2.5 10.3 1 2.7 2.2 4.2 3.1 4 .9-.2 1.3-2 1.5-4.7.2-2.7.1-6.5-.6-10.8-.4-2.2-.9-4.5-1.6-6.8-.4-1.2-.8-2.3-1.4-3.5-.3-.6-.6-1.2-1-1.7l-1.1-1.6c-3.1-4-6.8-6.8-10.2-9.5-3.4-2.7-6.7-5.3-9.1-8.3l-1.9-2.5-2-2.6c-1.3-1.7-2.6-3.4-3.7-5.1-1.1-1.7-2.1-3.5-2.5-4.9-.1-.3-.1-.6-.1-.8v-.1s0-.1.1-.2.2-.3.3-.4l.5-.5c.4-.2.7-.3 1.4-.3.6 0 1.4.2 2.2.4 1.6.5 3.3 1.5 5 2.7 1.7 1.1 3.3 2.4 4.9 3.8l2.4 2.1 2.9 2.8 2.4 2.2 1.2 1.1c.2.4.4-.1.6-.2l.5-.6 4-4.6c1.4-1.7 2.9-3.5 4.2-5.3 2.2-3 4.2-6.3 5.8-9.7 1.6-3.4 2.9-7 3.9-10.6 1-3.6 1.8-7.2 2.5-10.7l1-5.3c.3-1.7.7-3.3 1.1-5 .9-3.4 1.8-6.8 3-10 .6-1.6 1.2-3.3 1.8-4.8l.5-1.1.3-.7c0-.1.1-.2.1-.3.1-.1.1-.2.2-.1.1 0 .1.1.2.2l.1.1v.1l.1.3c.1.6.3 1.6.4 2.4.5 3.4.8 7 1 10.5.8 14.1 0 28.3-1.7 42.4-.8 7.1-2 14.2-2.2 21.5-.1 3.6.1 7.3.7 10.9.6 3.6 1.5 7.1 2.7 10.5 1.3 3.6 2.6 3.1 1.6-.5-1.9-6.8-2.8-13.8-2.2-20.8.5-7.1 2-14.1 3.1-21.2zM112.2 119.9zM90.8 114c-1.1-.7-2.4-1.2-3.7-1.3-2.5-.3-4.6.4-6.5 1.2-3.7 1.6-6.8 3.9-9.6 6.2l-4.2 3.6-1 .9-.1.1-.1.1h-.1l-.1-.1-1.7-2.1c-1.1-1.3-2.1-2.7-3.1-4.2-2-2.8-3.7-5.8-5-8.8-2.8-6.2-4.3-12.9-5.7-19.9l-1-5.2-.5-2.7c-.2-.9-.4-1.9-.7-2.8-.9-3.6-2-7.1-3.3-10.6-.4-1.1-.8-2.1-1.3-3.2l-.7-1.6-.4-.7-.5-.9-.3-.5-.4-.7c-.3-.4-.6-.9-.9-1.3l-1-1.2c-.3-.3-.7-.6-1.1-.9-.4-.2-.7-.4-1.1-.6-.4-.1-.8-.3-1.2-.3-.4-.1-.8 0-1.3 0-.4.1-.8.2-1.2.4-1.5.7-2.5 2.3-3.2 4.2-.7 2.3-.9 3.4-1 4.7-.2 1.2-.3 2.3-.4 3.4l-.3 3.3c-.6 8.9-.6 17.8-.1 26.6s1.5 17.7 2.9 26.4c.7 4.3 1.3 8.6 1.8 12.8.4 4.2.5 8.3 0 12.4-.9 7.7-2 14.3-.2 15 .8.3 2.2-1 3.6-3.6 1.4-2.5 2.7-6.3 3.2-10.7.5-4.6.4-9.3 0-13.8-.5-4.5-1.2-8.8-1.8-13.2-1.4-8.6-2.4-17.1-2.9-25.8-.5-8.6-.5-17.2.1-25.8.2-2.1.3-4.3.6-6.3l.3-1.7.1.3.3.5.3.7.6 1.4c.4.9.8 1.9 1.2 2.9 1.2 3.2 2.3 6.6 3.1 9.9.5 1.7.8 3.2 1.1 5l1 5.3c1.5 7.1 3.2 14.4 6.4 21.3 1.6 3.4 3.6 6.7 5.7 9.7 1.1 1.5 2.2 3 3.4 4.4l.9 1.1c.3.4.5.6 1.1 1.3l3.2 3.6.4.5.2.2c.1.1.1.2.2.1l.9-.9 1.8-1.7 2.8-2.7c1.3-1.2 2.5-2.4 3.9-3.5 2.6-2.2 5.4-4.3 8.2-5.6 1.4-.6 2.8-1 3.9-.9.5.1 1 .2 1.4.4.4.3.8.6 1.1 1.1.2.3.2.3.2.9-.1.5-.3 1.2-.5 2a30 30 0 0 1-2.3 4.3c-1.8 2.9-4 5.6-6.1 8.6-1.9 2.7-4.4 5.1-7 7.4-2.6 2.3-5.5 4.5-8.1 7.1-2.6 2.5-5.3 5.3-6.9 8.9-1.5 3.5-2 7.2-2.5 10.7-.5 3.6-.7 7.1-1.2 10.6-.6 3.6.9 4 1.7.3.7-3.5 1.1-7.1 1.8-10.6s1.4-6.9 2.8-9.9c1.4-2.9 3.9-5.4 6.5-7.6 2.6-2.3 5.5-4.3 8.4-6.6 2.8-2.3 5.7-4.8 8-7.8 2.1-2.7 4.5-5.5 6.6-8.6 1-1.5 2.1-3.2 2.9-5 .4-.9.8-2 1-3.2.2-1.1.1-3-.8-4.2-.6-.8-1.5-1.7-2.5-2.5zM122.5 63c-.6-.2-1.4-.3-2.3-.3.4 0 .8 0 .8-.1.4-.4.5-1.3 0-1.9-.4-.7-1.4-1.2-2.4-1-1 .1-2 .8-2.5 1.8s-.4 2.3.3 3.3c.8 1.2 2.3 1.9 3.7 1.7 1.4-.2 2.7-1.2 3.1-2.6.2-.3-.1-.7-.7-.9zM117.6 83.9c-.6-.2-1.4-.3-2.3-.3.4 0 .8 0 .8-.1.4-.4.5-1.3 0-1.9-.4-.7-1.4-1.2-2.4-1-1 .1-2 .8-2.5 1.8s-.4 2.3.3 3.3c.8 1.2 2.3 1.9 3.7 1.7 1.4-.2 2.7-1.2 3.1-2.6.1-.3-.2-.7-.7-.9zM87.2 82.9c-.6-.2-1.4-.3-2.3-.3.4 0 .8 0 .8-.1.4-.4.5-1.3 0-1.9-.4-.7-1.4-1.2-2.4-1-1 .1-2 .8-2.5 1.8s-.4 2.3.3 3.3c.8 1.2 2.3 1.9 3.7 1.7 1.4-.2 2.7-1.2 3.1-2.6.2-.3-.1-.7-.7-.9z"></path><path d="M122.2 95.9c5.3-3.8 9.3-9.5 11.3-15.8.9-3 1-5.8.5-7.8s-1.3-3.2-2.2-3.2c-.9 0-1.8 1.1-2.5 2.8-.7 1.7-1.4 3.8-2.1 6.2-1.6 5-4.7 9.4-8.9 12.5-2.1 1.5-4.4 2.9-6.9 3.7-2.5.9-5.1 1.6-7.8 1.8-2.7.3-5.4.3-8-.1-2.7-.3-5.3-1-7.7-2-1.3-.4-2.4-1.1-3.6-1.7-1.1-.7-2.3-1.3-3.3-2.2-1.1-.7-2-1.7-2.9-2.6-.8-1-1.7-1.9-2.4-3-2.4-3.5-3.8-7.6-4.3-12s-.1-8.9 1.1-13c1.3-4.1 3.7-7.8 6.8-10.8 3.1-3 7.1-5.1 11.4-6.4 4.2-1.3 8.8-1.8 13.3-1.3 4.5.4 8.9 1.6 12.9 3.9 3.9 2.2 7.4 5.3 9.8 9.2 2.4 3.9 3.8 8.4 4.2 13.1.1 1.2.5 1.8.9 1.8s.8-.6.7-1.9c0-4.9-1.1-9.9-3.5-14.4-2.3-4.5-6-8.3-10.3-11-1.9-1.2-4-2.3-6.1-3.1 1.2-.3 2.4-.6 3.5-1 2.1-.7 4.1-1.8 6-2.9 1-.6 1.9-1.2 2.7-1.9.5-.3.8-.7 1.3-1.1.8-.6 1.5-1.3 2.2-2l2.1-2.2 1.8-2.1L136 21l-7.6-.6c-1.2-.1-2.6 0-3.9-.1h-1.9l-1.6.2c-3 .4-6 1.3-8.7 2.6-3.6 1.7-6.7 4.2-9.2 7.1-.1-3-.9-6-2.4-9-.1-.2-1.6-.2-1.7 0-1.6 3.2-2.4 6.4-2.4 9.6v.3c-1.2-1.4-2.5-2.8-3.9-4.1-2.8-2.6-6.1-4.8-9.7-6.5-3.6-1.6-7.5-2.7-11.4-3.2-1-.1-2-.3-2.9-.3l-1.7.1c-.9 0-1.8 0-2.6.1-3.5.1-7 .4-10.6.7 1.7 2 3.4 4.1 5.1 6.1l2.6 3 .7.7.7.6.8.8c4.1 3.9 9.1 7.2 14.7 9.1 1.6.6 3.3 1 4.9 1.4-2.9 1.3-5.6 3-7.9 5.1-4 3.5-7.1 8.1-8.8 13.2-1.7 5.1-2.1 10.4-1.6 15.6.5 5.2 2.3 10.5 5.3 15 .9 1.4 2 2.6 3.1 3.9 1.2 1.1 2.3 2.3 3.7 3.3 1.3 1 2.7 1.9 4.1 2.7 1.4.7 2.9 1.5 4.4 2.1 3 1.2 6.1 2 9.3 2.4 3.2.4 6.4.4 9.6.1 3.2-.3 6.3-1.1 9.3-2.2 2.9-1.4 5.7-3 8.4-4.9zm-8-68.1c2.4-.8 4.9-1.2 7.4-1.3h.5l.1.1v.1l-.1.1c-.3.2-.7.6-1 .8-.7.5-1.4 1.1-2.2 1.5-1.5.9-3.1 1.8-4.8 2.3-3 1.1-6.2 1.5-9.5 1.5 2.9-2.3 6.1-4.1 9.6-5.1zm-46-3.6l-.7-.7-.1-.1s-.1 0-.1-.1c0 0 0-.1.1-.1h.1 1c.9 0 1.7.1 2.6.1 3.4.2 6.8.8 10.1 1.9 5.3 1.7 10.1 4.9 14.5 8.7h-.5c-5 .2-10-.4-14.6-2s-8.8-4.3-12.4-7.7z"></path></g><!----><g data-v-423bf9ae="" id="24779638-7201-4126-8f50-72b238996869" fill="black" transform="matrix(0.5783537953088348,0,0,0.5783537953088348,42.41448509769667,417.7733289002371)"><path d="M4.40 1.42L4.40 1.42Q3.69 1.19 2.51 1.57L2.51 1.57L2.51 1.57Q1.00 2.06 0.44 3.77L0.44 3.77L0.44 3.77Q0.09 4.83 0.27 6.11L0.27 6.11L0.27 6.11Q0.36 6.76 0.62 7.16L0.62 7.16L0.62 7.16Q0.21 7.38-0.09 7.70L-0.09 7.70L-0.09 7.70Q-1.09 8.80-0.98 10.01L-0.98 10.01L-0.98 10.01Q-0.91 10.70-0.43 11.11L-0.43 11.11L-0.43 11.11Q-0.03 11.44 0.79 11.42L0.79 11.42L0.79 11.42Q1.63 11.39 2.33 10.95L2.33 10.95L2.33 10.95Q3.08 10.49 3.38 9.76L3.38 9.76L3.38 9.76Q3.45 9.61 3.17 9.60L3.17 9.60L3.17 9.60Q2.99 9.59 2.80 9.63L2.80 9.63L2.80 9.63Q2.05 9.76 1.95 10.02L1.95 10.02L1.95 10.02Q1.75 10.51 1.40 10.80L1.40 10.80L1.40 10.80Q1.39 10.81 1.37 10.82L1.37 10.82L1.37 10.82Q1.33 10.81 1.32 10.81L1.32 10.81L1.32 10.81Q1.25 10.79 1.17 10.75L1.17 10.75L1.17 10.75Q1.00 10.68 0.85 10.52L0.85 10.52L0.85 10.52Q0.56 10.23 0.49 9.63L0.49 9.63L0.49 9.63Q0.39 8.83 1.02 7.86L1.02 7.86L1.02 7.86Q1.10 7.74 1.20 7.62L1.20 7.62L1.20 7.62Q1.42 7.70 1.69 7.72L1.69 7.72L1.69 7.72Q2.09 7.74 2.58 7.51L2.58 7.51L2.58 7.51Q3.00 7.32 2.85 7.18L2.85 7.18L2.85 7.18Q2.56 6.90 2.14 6.84L2.14 6.84L2.14 6.84Q2.10 6.79 2.06 6.75L2.06 6.75L2.06 6.75Q1.86 6.45 1.75 5.89L1.75 5.89L1.75 5.89Q1.56 4.89 1.74 4.00L1.74 4.00L1.74 4.00Q2.01 2.70 2.78 2.04L2.78 2.04L2.78 2.04Q2.83 2.00 2.93 1.93L2.93 1.93L2.93 1.93Q2.93 1.93 2.93 1.93L2.93 1.93L2.93 1.93Q3.06 1.94 3.04 1.93L3.04 1.93L3.04 1.93Q3.62 2.02 3.51 2.62L3.51 2.62L3.51 2.62Q3.46 2.86 4.09 2.75L4.09 2.75L4.09 2.75Q4.40 2.69 4.65 2.58L4.65 2.58L4.65 2.58Q4.93 2.45 4.95 2.36L4.95 2.36L4.95 2.36Q5.09 1.63 4.40 1.42L4.40 1.42ZM16.69 0.74L16.69 0.74Q16.38 0.79 16.13 0.91L16.13 0.91L16.13 0.91Q15.85 1.04 15.83 1.13L15.83 1.13L15.83 1.13Q14.94 3.96 14.32 7.39L14.32 7.39L14.32 7.39Q14.24 6.88 14.12 6.21L14.12 6.21L14.12 6.21Q13.83 4.44 13.78 4.05L13.78 4.05L13.78 4.05Q13.63 2.77 13.44 2.37L13.44 2.37L13.44 2.37Q13.44 2.37 13.43 2.35L13.43 2.35L13.43 2.34L13.43 2.34Q13.43 2.34 13.43 2.33L13.43 2.33L13.43 2.33Q13.47 2.08 12.84 2.20L12.84 2.20L12.84 2.20Q12.54 2.26 12.29 2.37L12.29 2.37L12.29 2.37Q12.00 2.51 11.99 2.60L11.99 2.60L11.99 2.60Q11.81 3.71 11.16 6.73L11.16 6.73L11.16 6.73Q10.62 9.34 10.41 10.89L10.41 10.89L10.41 10.89Q10.40 11.01 10.78 10.98L10.78 10.98L10.78 10.98Q11.03 10.96 11.20 10.91L11.20 10.91L11.20 10.91Q11.85 10.74 11.87 10.50L11.87 10.50L11.87 10.50Q12.07 8.97 12.63 6.38L12.63 6.38L12.63 6.38Q12.65 6.54 12.66 6.61L12.66 6.61L12.66 6.61Q12.88 7.90 13.06 8.95L13.06 8.95L13.06 8.95Q13.32 10.45 13.54 11.09L13.54 11.09L13.54 11.09Q13.60 11.24 13.94 11.21L13.94 11.21L13.94 11.21Q14.25 11.18 14.59 11.05L14.59 11.05L14.59 11.05Q15.18 10.89 15.21 10.65L15.21 10.65L15.21 10.65Q15.98 5.00 17.27 0.87L17.27 0.87L17.27 0.87Q17.35 0.62 16.69 0.74L16.69 0.74ZM28.43 1.31L28.43 1.31Q28.12 1.36 27.87 1.48L27.87 1.48L27.87 1.48Q27.59 1.61 27.57 1.70L27.57 1.70L27.57 1.70Q27.37 2.55 26.92 4.25L26.92 4.25L26.92 4.25Q26.47 5.94 26.27 6.80L26.27 6.80L26.27 6.80Q25.62 6.88 24.94 7.03L24.94 7.03L24.94 7.03Q25.15 6.04 25.56 4.31L25.56 4.31L25.56 4.31Q26.02 2.37 26.19 1.59L26.19 1.59L26.19 1.59Q26.24 1.34 25.61 1.46L25.61 1.46L25.61 1.46Q25.31 1.51 25.05 1.63L25.05 1.63L25.05 1.63Q24.77 1.76 24.75 1.85L24.75 1.85L24.75 1.85Q24.58 2.61 24.10 4.64L24.10 4.64L24.10 4.64Q23.69 6.41 23.47 7.44L23.47 7.44L23.47 7.44Q23.34 7.49 23.30 7.50L23.30 7.50L23.30 7.50Q23.15 7.55 22.98 7.66L22.98 7.66L22.98 7.66Q22.73 7.82 22.87 7.91L22.87 7.91L22.87 7.91Q23.04 8.01 23.37 7.94L23.37 7.94L23.37 7.94Q23.05 9.65 22.93 11.08L22.93 11.08L22.93 11.08Q22.92 11.15 23.15 11.16L23.15 11.16L23.15 11.16Q23.36 11.17 23.64 11.12L23.64 11.12L23.64 11.12Q24.36 10.98 24.38 10.69L24.38 10.69L24.38 10.69Q24.51 9.26 24.84 7.53L24.84 7.53L24.84 7.53Q25.05 7.49 25.40 7.42L25.40 7.42L25.40 7.42Q25.77 7.36 26.15 7.33L26.15 7.33L26.15 7.33Q25.68 9.44 25.59 11.13L25.59 11.13L25.59 11.13Q25.59 11.20 25.82 11.21L25.82 11.21L25.82 11.21Q26.03 11.22 26.31 11.17L26.31 11.17L26.31 11.17Q27.04 11.03 27.06 10.74L27.06 10.74L27.06 10.74Q27.14 9.17 27.55 7.25L27.55 7.25L27.55 7.25Q27.88 7.18 28.14 7.02L28.14 7.02L28.14 7.02Q28.32 6.91 28.29 6.82L28.29 6.82L28.29 6.82Q28.27 6.72 28.06 6.71L28.06 6.71L28.06 6.71Q27.89 6.71 27.67 6.71L27.67 6.71L27.67 6.71Q27.88 5.79 28.33 4.07L28.33 4.07L28.33 4.07Q28.81 2.28 29.01 1.44L29.01 1.44L29.01 1.44Q29.07 1.19 28.43 1.31L28.43 1.31ZM38.39 7.89L38.39 7.89Q38.29 7.90 37.39 7.84L37.39 7.84L37.39 7.84Q37.80 6.63 38.25 5.57L38.25 5.57L38.25 5.57Q38.42 5.18 38.96 3.95L38.96 3.95L38.96 3.95Q38.94 4.61 38.76 7.85L38.76 7.85L38.76 7.85Q38.59 7.87 38.39 7.89L38.39 7.89ZM40.20 1.18L40.20 1.18Q40.02 1.09 39.63 1.16L39.63 1.16L39.63 1.16Q38.99 1.27 38.78 1.55L38.78 1.55L38.78 1.55Q38.58 1.80 37.80 3.58L37.80 3.58L37.80 3.58Q37.67 3.90 37.30 4.70L37.30 4.70L37.30 4.70Q36.99 5.42 36.81 5.83L36.81 5.83L36.81 5.83Q36.39 6.79 36.02 7.86L36.02 7.86L36.02 7.86Q35.10 7.97 34.45 8.37L34.45 8.37L34.45 8.37Q34.27 8.48 34.30 8.58L34.30 8.58L34.30 8.58Q34.32 8.67 34.53 8.68L34.53 8.68L34.53 8.68Q35.05 8.70 35.52 8.43L35.52 8.43L35.52 8.43Q35.66 8.41 35.71 8.41L35.71 8.41L35.71 8.41Q35.77 8.41 35.83 8.41L35.83 8.41L35.83 8.41Q35.51 9.39 35.19 10.53L35.19 10.53L35.19 10.53Q35.12 10.79 35.78 10.67L35.78 10.67L35.78 10.67Q36.08 10.62 36.33 10.49L36.33 10.49L36.33 10.49Q36.61 10.37 36.63 10.27L36.63 10.27L36.63 10.27Q36.90 9.32 37.17 8.48L37.17 8.48L37.17 8.48Q37.47 8.50 37.67 8.47L37.67 8.47L37.67 8.47Q38.37 8.39 38.73 8.46L38.73 8.46L38.73 8.46Q38.62 10.55 38.62 12.02L38.62 12.02L38.62 12.02Q38.62 12.10 38.84 12.11L38.84 12.11L38.84 12.11Q39.06 12.12 39.35 12.06L39.35 12.06L39.35 12.06Q40.08 11.91 40.08 11.62L40.08 11.62L40.08 11.62Q40.08 9.90 40.28 6.45L40.28 6.45L40.28 6.45Q40.48 3.00 40.48 1.27L40.48 1.27L40.48 1.27Q40.48 1.18 40.20 1.18L40.20 1.18ZM53.86 0.74L53.86 0.74Q53.55 0.79 53.30 0.91L53.30 0.91L53.30 0.91Q53.03 1.04 53.00 1.13L53.00 1.13L53.00 1.13Q52.12 3.96 51.50 7.39L51.50 7.39L51.50 7.39Q51.41 6.88 51.30 6.21L51.30 6.21L51.30 6.21Q51.00 4.44 50.96 4.05L50.96 4.05L50.96 4.05Q50.80 2.77 50.61 2.37L50.61 2.37L50.61 2.37Q50.61 2.37 50.60 2.35L50.60 2.35L50.61 2.34L50.61 2.34Q50.61 2.34 50.61 2.33L50.61 2.33L50.61 2.33Q50.65 2.08 50.02 2.20L50.02 2.20L50.02 2.20Q49.72 2.26 49.46 2.37L49.46 2.37L49.46 2.37Q49.18 2.51 49.16 2.60L49.16 2.60L49.16 2.60Q48.98 3.71 48.34 6.73L48.34 6.73L48.34 6.73Q47.79 9.34 47.58 10.89L47.58 10.89L47.58 10.89Q47.57 11.01 47.95 10.98L47.95 10.98L47.95 10.98Q48.21 10.96 48.38 10.91L48.38 10.91L48.38 10.91Q49.02 10.74 49.05 10.50L49.05 10.50L49.05 10.50Q49.25 8.97 49.80 6.38L49.80 6.38L49.80 6.38Q49.83 6.54 49.83 6.61L49.83 6.61L49.83 6.61Q50.05 7.90 50.23 8.95L50.23 8.95L50.23 8.95Q50.49 10.45 50.72 11.09L50.72 11.09L50.72 11.09Q50.77 11.24 51.11 11.21L51.11 11.21L51.11 11.21Q51.43 11.18 51.76 11.05L51.76 11.05L51.76 11.05Q52.35 10.89 52.38 10.65L52.38 10.65L52.38 10.65Q53.16 5.00 54.44 0.87L54.44 0.87L54.44 0.87Q54.52 0.62 53.86 0.74L53.86 0.74ZM65.54 1.54L65.54 1.54Q65.11 0.91 63.92 1.20L63.92 1.20L63.92 1.20Q62.97 1.43 62.32 2.14L62.32 2.14L62.32 2.14Q61.31 3.26 60.88 5.40L60.88 5.40L60.88 5.40Q60.59 6.86 60.49 8.67L60.49 8.67L60.49 8.67Q60.48 9.98 60.61 10.47L60.61 10.47L60.61 10.47Q60.89 11.44 61.97 11.50L61.97 11.50L61.97 11.50Q62.60 11.53 63.18 11.27L63.18 11.27L63.18 11.27Q63.78 10.99 64.15 10.51L64.15 10.51L64.15 10.51Q64.52 10.02 64.86 8.89L64.86 8.89L64.86 8.89Q64.93 8.64 64.28 8.76L64.28 8.76L64.28 8.76Q63.98 8.81 63.72 8.93L63.72 8.93L63.72 8.93Q63.45 9.06 63.42 9.15L63.42 9.15L63.42 9.15Q63.18 9.99 62.90 10.48L62.90 10.48L62.90 10.48Q62.79 10.68 62.66 10.83L62.66 10.83L62.66 10.83Q62.09 10.58 61.97 9.66L61.97 9.66L61.97 9.66Q61.94 9.42 61.95 8.20L61.95 8.20L61.95 8.20Q62.05 6.41 62.36 4.92L62.36 4.92L62.36 4.92Q62.83 2.75 63.86 1.80L63.86 1.80L63.86 1.80Q63.88 1.79 63.90 1.76L63.90 1.76L63.90 1.76Q64.26 2.01 64.36 2.75L64.36 2.75L64.36 2.75Q64.44 3.36 64.22 4.29L64.22 4.29L64.22 4.29Q63.89 5.76 63.88 5.80L63.88 5.80L63.88 5.80Q63.86 5.92 64.24 5.89L64.24 5.89L64.24 5.89Q64.50 5.87 64.67 5.82L64.67 5.82L64.67 5.82Q65.30 5.65 65.34 5.41L65.34 5.41L65.34 5.41Q65.39 5.07 65.55 4.41L65.55 4.41L65.55 4.41Q65.71 3.74 65.77 3.40L65.77 3.40L65.77 3.40Q65.96 2.17 65.54 1.54L65.54 1.54ZM73.77 2.53L73.77 2.53Q73.53 3.62 72.91 6.79L72.91 6.79L72.91 6.79Q72.67 8.03 72.48 8.93L72.48 8.93L72.48 8.93Q72.09 10.78 72.08 10.91L72.08 10.91L72.08 10.91Q72.08 10.99 72.31 11.00L72.31 11.00L72.31 11.00Q72.53 11.01 72.81 10.96L72.81 10.96L72.81 10.96Q73.54 10.81 73.55 10.52L73.55 10.52L73.55 10.52Q73.55 10.23 73.71 9.62L73.71 9.62L73.71 9.62Q73.79 9.32 73.94 8.57L73.94 8.57L73.94 8.57Q74.12 7.77 74.38 6.44L74.38 6.44L74.38 6.44Q74.97 3.36 75.22 2.27L75.22 2.27L75.22 2.27Q75.27 2.02 74.63 2.13L74.63 2.13L74.63 2.13Q74.33 2.19 74.07 2.31L74.07 2.31L74.07 2.31Q73.79 2.44 73.77 2.53L73.77 2.53ZM87.83 0.74L87.83 0.74Q87.52 0.79 87.27 0.91L87.27 0.91L87.27 0.91Q86.99 1.04 86.97 1.13L86.97 1.13L86.97 1.13Q86.08 3.96 85.46 7.39L85.46 7.39L85.46 7.39Q85.38 6.88 85.26 6.21L85.26 6.21L85.26 6.21Q84.97 4.44 84.92 4.05L84.92 4.05L84.92 4.05Q84.77 2.77 84.58 2.37L84.58 2.37L84.58 2.37Q84.58 2.37 84.57 2.35L84.57 2.35L84.57 2.34L84.57 2.34Q84.57 2.34 84.57 2.33L84.57 2.33L84.57 2.33Q84.62 2.08 83.99 2.20L83.99 2.20L83.99 2.20Q83.69 2.26 83.43 2.37L83.43 2.37L83.43 2.37Q83.15 2.51 83.13 2.60L83.13 2.60L83.13 2.60Q82.95 3.71 82.30 6.73L82.30 6.73L82.30 6.73Q81.76 9.34 81.55 10.89L81.55 10.89L81.55 10.89Q81.54 11.01 81.92 10.98L81.92 10.98L81.92 10.98Q82.17 10.96 82.35 10.91L82.35 10.91L82.35 10.91Q82.99 10.74 83.02 10.50L83.02 10.50L83.02 10.50Q83.21 8.97 83.77 6.38L83.77 6.38L83.77 6.38Q83.79 6.54 83.80 6.61L83.80 6.61L83.80 6.61Q84.02 7.90 84.20 8.95L84.20 8.95L84.20 8.95Q84.46 10.45 84.68 11.09L84.68 11.09L84.68 11.09Q84.74 11.24 85.08 11.21L85.08 11.21L85.08 11.21Q85.39 11.18 85.73 11.05L85.73 11.05L85.73 11.05Q86.32 10.89 86.35 10.65L86.35 10.65L86.35 10.65Q87.12 5.00 88.41 0.87L88.41 0.87L88.41 0.87Q88.49 0.62 87.83 0.74L87.83 0.74ZM97.47 7.83L97.47 7.83L97.47 7.83Q97.49 7.83 97.51 7.81L97.51 7.81L97.51 7.81Q97.49 7.83 97.47 7.83L97.47 7.83ZM99.03 1.67L99.03 1.67Q98.66 0.90 97.30 1.50L97.30 1.50L97.30 1.50Q96.74 1.75 96.17 2.55L96.17 2.55L96.17 2.55Q95.70 3.20 95.28 4.06L95.28 4.06L95.28 4.06Q94.36 5.91 94.08 8.21L94.08 8.21L94.08 8.21Q93.96 9.15 93.95 9.80L93.95 9.80L93.95 9.80Q93.93 10.74 94.36 11.05L94.36 11.05L94.36 11.05Q94.81 11.39 95.95 11.00L95.95 11.00L95.95 11.00Q96.60 10.77 97.19 10.19L97.19 10.19L97.19 10.19Q97.71 9.71 98.02 8.87L98.02 8.87L98.02 8.87Q98.16 8.48 98.23 8.11L98.23 8.11L98.23 8.11Q98.28 7.72 98.18 7.57L98.18 7.57L98.18 7.57Q98 7.29 97.33 7.43L97.33 7.43L97.33 7.43Q96.61 7.58 95.99 8.07L95.99 8.07L95.99 8.07Q95.81 8.21 96.02 8.27L96.02 8.27L96.02 8.27Q96.17 8.31 96.33 8.30L96.33 8.30L96.33 8.30Q96.56 8.28 96.79 8.21L96.79 8.21L96.79 8.21Q96.80 8.48 96.61 9.04L96.61 9.04L96.61 9.04Q96.42 9.59 96.16 9.99L96.16 9.99L96.16 9.99Q96.11 10.06 96.09 10.08L96.09 10.08L96.09 10.08Q95.98 10.21 95.88 10.31L95.88 10.31L95.88 10.31Q95.79 10.40 95.66 10.51L95.66 10.51L95.66 10.51Q95.61 10.45 95.56 10.36L95.56 10.36L95.56 10.36Q95.44 10.13 95.41 9.65L95.41 9.65L95.41 9.65Q95.40 9.36 95.50 8.16L95.50 8.16L95.50 8.16Q95.69 5.98 96.64 3.95L96.64 3.95L96.64 3.95Q97.17 2.84 97.64 2.21L97.64 2.21L97.64 2.21Q97.76 2.51 97.77 2.81L97.77 2.81L97.77 2.81Q97.79 3.19 97.60 3.34L97.60 3.34L97.60 3.34Q97.43 3.47 97.63 3.53L97.63 3.53L97.63 3.53Q97.78 3.58 97.94 3.57L97.94 3.57L97.94 3.57Q98.54 3.51 98.92 3.22L98.92 3.22L98.92 3.22Q99.22 2.98 99.22 2.48L99.22 2.48L99.22 2.48Q99.22 2.06 99.03 1.67L99.03 1.67ZM117.06 2.53L117.06 2.53Q116.81 3.62 116.20 6.79L116.20 6.79L116.20 6.79Q115.96 8.03 115.77 8.93L115.77 8.93L115.77 8.93Q115.38 10.78 115.37 10.91L115.37 10.91L115.37 10.91Q115.37 10.99 115.60 11.00L115.60 11.00L115.60 11.00Q115.81 11.01 116.09 10.96L116.09 10.96L116.09 10.96Q116.83 10.81 116.83 10.52L116.83 10.52L116.83 10.52Q116.84 10.23 117.00 9.62L117.00 9.62L117.00 9.62Q117.07 9.32 117.23 8.57L117.23 8.57L117.23 8.57Q117.40 7.77 117.66 6.44L117.66 6.44L117.66 6.44Q118.25 3.36 118.50 2.27L118.50 2.27L118.50 2.27Q118.56 2.02 117.91 2.13L117.91 2.13L117.91 2.13Q117.61 2.19 117.36 2.31L117.36 2.31L117.36 2.31Q117.08 2.44 117.06 2.53L117.06 2.53ZM131.11 0.74L131.11 0.74Q130.81 0.79 130.55 0.91L130.55 0.91L130.55 0.91Q130.28 1.04 130.25 1.13L130.25 1.13L130.25 1.13Q129.37 3.96 128.75 7.39L128.75 7.39L128.75 7.39Q128.67 6.88 128.55 6.21L128.55 6.21L128.55 6.21Q128.26 4.44 128.21 4.05L128.21 4.05L128.21 4.05Q128.06 2.77 127.87 2.37L127.87 2.37L127.87 2.37Q127.87 2.37 127.85 2.35L127.85 2.35L127.86 2.34L127.86 2.34Q127.86 2.34 127.86 2.33L127.86 2.33L127.86 2.33Q127.90 2.08 127.27 2.20L127.27 2.20L127.27 2.20Q126.97 2.26 126.72 2.37L126.72 2.37L126.72 2.37Q126.43 2.51 126.42 2.60L126.42 2.60L126.42 2.60Q126.23 3.71 125.59 6.73L125.59 6.73L125.59 6.73Q125.04 9.34 124.84 10.89L124.84 10.89L124.84 10.89Q124.82 11.01 125.21 10.98L125.21 10.98L125.21 10.98Q125.46 10.96 125.63 10.91L125.63 10.91L125.63 10.91Q126.27 10.74 126.30 10.50L126.30 10.50L126.30 10.50Q126.50 8.97 127.05 6.38L127.05 6.38L127.05 6.38Q127.08 6.54 127.09 6.61L127.09 6.61L127.09 6.61Q127.31 7.90 127.48 8.95L127.48 8.95L127.48 8.95Q127.74 10.45 127.97 11.09L127.97 11.09L127.97 11.09Q128.02 11.24 128.37 11.21L128.37 11.21L128.37 11.21Q128.68 11.18 129.01 11.05L129.01 11.05L129.01 11.05Q129.60 10.89 129.64 10.65L129.64 10.65L129.64 10.65Q130.41 5.00 131.69 0.87L131.69 0.87L131.69 0.87Q131.78 0.62 131.11 0.74L131.11 0.74ZM142.47 3.48L142.47 3.48Q142.43 1.70 141.59 1.01L141.59 1.01L141.59 1.01Q141.12 0.64 140.23 0.68L140.23 0.68L140.23 0.68Q139.23 0.72 137.98 1.40L137.98 1.40L137.98 1.40Q137.79 1.50 137.83 1.60L137.83 1.60L137.83 1.60Q137.86 1.70 138.06 1.71L138.06 1.71L138.06 1.71Q138.56 1.72 139.09 1.44L139.09 1.44L139.09 1.44Q139.10 1.43 139.13 1.42L139.13 1.42L139.13 1.42Q139.17 1.39 139.25 1.35L139.25 1.35L139.25 1.35Q139.29 1.34 139.36 1.31L139.36 1.31L139.36 1.31Q139.39 1.29 139.50 1.26L139.50 1.26L139.51 1.26L139.51 1.26Q139.51 1.25 139.51 1.26L139.51 1.26L139.51 1.26Q139.52 1.25 139.54 1.25L139.54 1.25L139.54 1.25Q139.58 1.25 139.62 1.26L139.62 1.26L139.62 1.26Q139.62 1.26 139.64 1.26L139.64 1.26L139.64 1.26Q139.69 1.26 139.69 1.26L139.69 1.26L139.69 1.26Q139.77 1.28 139.88 1.31L139.88 1.31L139.88 1.31Q139.88 1.31 139.88 1.31L139.88 1.31L139.88 1.31Q139.88 1.31 139.89 1.31L139.89 1.31L139.89 1.31Q139.92 1.33 139.97 1.35L139.97 1.35L139.97 1.35Q140.02 1.37 140.10 1.43L140.10 1.43L140.10 1.43Q140.23 1.51 140.36 1.65L140.36 1.65L140.36 1.65Q140.56 1.85 140.72 2.23L140.72 2.23L140.72 2.23Q141.31 3.66 140.78 6.11L140.78 6.11L140.78 6.11Q140.43 7.70 139.72 8.97L139.72 8.97L139.72 8.97Q139.36 9.60 138.96 10.03L138.96 10.03L138.96 10.03Q138.78 10.22 138.57 10.39L138.57 10.39L138.57 10.39Q139.66 5.68 140.12 1.78L140.12 1.78L140.12 1.78Q140.13 1.71 139.91 1.70L139.91 1.70L139.91 1.70Q139.69 1.69 139.42 1.74L139.42 1.74L139.42 1.74Q138.69 1.87 138.66 2.17L138.66 2.17L138.66 2.17Q138.19 6.19 137.01 11.16L137.01 11.16L137.01 11.16Q136.95 11.42 137.59 11.30L137.59 11.30L137.59 11.30Q137.89 11.25 138.15 11.12L138.15 11.12L138.15 11.12Q138.35 11.03 138.41 10.97L138.41 10.97L138.41 10.97Q138.67 10.93 139.06 10.77L139.06 10.77L139.06 10.77Q140.62 10.12 141.61 7.78L141.61 7.78L141.61 7.78Q142.52 5.63 142.47 3.48L142.47 3.48ZM150.41 2.53L150.41 2.53Q150.17 3.62 149.55 6.79L149.55 6.79L149.55 6.79Q149.31 8.03 149.12 8.93L149.12 8.93L149.12 8.93Q148.73 10.78 148.72 10.91L148.72 10.91L148.72 10.91Q148.72 10.99 148.95 11.00L148.95 11.00L148.95 11.00Q149.17 11.01 149.45 10.96L149.45 10.96L149.45 10.96Q150.18 10.81 150.19 10.52L150.19 10.52L150.19 10.52Q150.19 10.23 150.35 9.62L150.35 9.62L150.35 9.62Q150.42 9.32 150.58 8.57L150.58 8.57L150.58 8.57Q150.75 7.77 151.01 6.44L151.01 6.44L151.01 6.44Q151.61 3.36 151.85 2.27L151.85 2.27L151.85 2.27Q151.91 2.02 151.27 2.13L151.27 2.13L151.27 2.13Q150.96 2.19 150.71 2.31L150.71 2.31L150.71 2.31Q150.43 2.44 150.41 2.53L150.41 2.53ZM161.36 7.89L161.36 7.89Q161.25 7.90 160.35 7.84L160.35 7.84L160.35 7.84Q160.76 6.63 161.22 5.57L161.22 5.57L161.22 5.57Q161.38 5.18 161.93 3.95L161.93 3.95L161.93 3.95Q161.91 4.61 161.72 7.85L161.72 7.85L161.72 7.85Q161.55 7.87 161.36 7.89L161.36 7.89ZM163.17 1.18L163.17 1.18Q162.98 1.09 162.60 1.16L162.60 1.16L162.60 1.16Q161.96 1.27 161.75 1.55L161.75 1.55L161.75 1.55Q161.55 1.80 160.77 3.58L160.77 3.58L160.77 3.58Q160.63 3.90 160.27 4.70L160.27 4.70L160.27 4.70Q159.95 5.42 159.78 5.83L159.78 5.83L159.78 5.83Q159.36 6.79 158.98 7.86L158.98 7.86L158.98 7.86Q158.06 7.97 157.41 8.37L157.41 8.37L157.41 8.37Q157.23 8.48 157.26 8.58L157.26 8.58L157.26 8.58Q157.29 8.67 157.49 8.68L157.49 8.68L157.49 8.68Q158.01 8.70 158.48 8.43L158.48 8.43L158.48 8.43Q158.63 8.41 158.68 8.41L158.68 8.41L158.68 8.41Q158.74 8.41 158.80 8.41L158.80 8.41L158.80 8.41Q158.48 9.39 158.16 10.53L158.16 10.53L158.16 10.53Q158.09 10.79 158.74 10.67L158.74 10.67L158.74 10.67Q159.04 10.62 159.30 10.49L159.30 10.49L159.30 10.49Q159.57 10.37 159.60 10.27L159.60 10.27L159.60 10.27Q159.87 9.32 160.14 8.48L160.14 8.48L160.14 8.48Q160.43 8.50 160.63 8.47L160.63 8.47L160.63 8.47Q161.33 8.39 161.69 8.46L161.69 8.46L161.69 8.46Q161.58 10.55 161.58 12.02L161.58 12.02L161.58 12.02Q161.58 12.10 161.81 12.11L161.81 12.11L161.81 12.11Q162.03 12.12 162.31 12.06L162.31 12.06L162.31 12.06Q163.04 11.91 163.04 11.62L163.04 11.62L163.04 11.62Q163.04 9.90 163.25 6.45L163.25 6.45L163.25 6.45Q163.45 3.00 163.45 1.27L163.45 1.27L163.45 1.27Q163.45 1.18 163.17 1.18L163.17 1.18ZM176.83 0.74L176.83 0.74Q176.52 0.79 176.26 0.91L176.26 0.91L176.26 0.91Q175.99 1.04 175.96 1.13L175.96 1.13L175.96 1.13Q175.08 3.96 174.46 7.39L174.46 7.39L174.46 7.39Q174.38 6.88 174.26 6.21L174.26 6.21L174.26 6.21Q173.97 4.44 173.92 4.05L173.92 4.05L173.92 4.05Q173.77 2.77 173.58 2.37L173.58 2.37L173.58 2.37Q173.58 2.37 173.56 2.35L173.56 2.35L173.57 2.34L173.57 2.34Q173.57 2.34 173.57 2.33L173.57 2.33L173.57 2.33Q173.61 2.08 172.98 2.20L172.98 2.20L172.98 2.20Q172.68 2.26 172.43 2.37L172.43 2.37L172.43 2.37Q172.14 2.51 172.13 2.60L172.13 2.60L172.13 2.60Q171.94 3.71 171.30 6.73L171.30 6.73L171.30 6.73Q170.75 9.34 170.55 10.89L170.55 10.89L170.55 10.89Q170.54 11.01 170.92 10.98L170.92 10.98L170.92 10.98Q171.17 10.96 171.34 10.91L171.34 10.91L171.34 10.91Q171.99 10.74 172.01 10.50L172.01 10.50L172.01 10.50Q172.21 8.97 172.76 6.38L172.76 6.38L172.76 6.38Q172.79 6.54 172.80 6.61L172.80 6.61L172.80 6.61Q173.02 7.90 173.20 8.95L173.20 8.95L173.20 8.95Q173.46 10.45 173.68 11.09L173.68 11.09L173.68 11.09Q173.74 11.24 174.08 11.21L174.08 11.21L174.08 11.21Q174.39 11.18 174.73 11.05L174.73 11.05L174.73 11.05Q175.31 10.89 175.35 10.65L175.35 10.65L175.35 10.65Q176.12 5.00 177.41 0.87L177.41 0.87L177.41 0.87Q177.49 0.62 176.83 0.74L176.83 0.74ZM196.22 7.89L196.22 7.89Q196.12 7.90 195.21 7.84L195.21 7.84L195.21 7.84Q195.62 6.63 196.08 5.57L196.08 5.57L196.08 5.57Q196.25 5.18 196.79 3.95L196.79 3.95L196.79 3.95Q196.77 4.61 196.59 7.85L196.59 7.85L196.59 7.85Q196.42 7.87 196.22 7.89L196.22 7.89ZM198.03 1.18L198.03 1.18Q197.85 1.09 197.46 1.16L197.46 1.16L197.46 1.16Q196.82 1.27 196.61 1.55L196.61 1.55L196.61 1.55Q196.41 1.80 195.63 3.58L195.63 3.58L195.63 3.58Q195.49 3.90 195.13 4.70L195.13 4.70L195.13 4.70Q194.82 5.42 194.64 5.83L194.64 5.83L194.64 5.83Q194.22 6.79 193.85 7.86L193.85 7.86L193.85 7.86Q192.92 7.97 192.27 8.37L192.27 8.37L192.27 8.37Q192.10 8.48 192.12 8.58L192.12 8.58L192.12 8.58Q192.15 8.67 192.36 8.68L192.36 8.68L192.36 8.68Q192.88 8.70 193.35 8.43L193.35 8.43L193.35 8.43Q193.49 8.41 193.54 8.41L193.54 8.41L193.54 8.41Q193.60 8.41 193.66 8.41L193.66 8.41L193.66 8.41Q193.34 9.39 193.02 10.53L193.02 10.53L193.02 10.53Q192.95 10.79 193.61 10.67L193.61 10.67L193.61 10.67Q193.91 10.62 194.16 10.49L194.16 10.49L194.16 10.49Q194.43 10.37 194.46 10.27L194.46 10.27L194.46 10.27Q194.73 9.32 195.00 8.48L195.00 8.48L195.00 8.48Q195.30 8.50 195.49 8.47L195.49 8.47L195.49 8.47Q196.20 8.39 196.55 8.46L196.55 8.46L196.55 8.46Q196.44 10.55 196.44 12.02L196.44 12.02L196.44 12.02Q196.44 12.10 196.67 12.11L196.67 12.11L196.67 12.11Q196.89 12.12 197.18 12.06L197.18 12.06L197.18 12.06Q197.91 11.91 197.91 11.62L197.91 11.62L197.91 11.62Q197.91 9.90 198.11 6.45L198.11 6.45L198.11 6.45Q198.31 3.00 198.31 1.27L198.31 1.27L198.31 1.27Q198.31 1.18 198.03 1.18L198.03 1.18ZM208.85 7.83L208.85 7.83L208.85 7.83Q208.87 7.83 208.89 7.81L208.89 7.81L208.89 7.81Q208.87 7.83 208.85 7.83L208.85 7.83ZM210.41 1.67L210.41 1.67Q210.03 0.90 208.68 1.50L208.68 1.50L208.68 1.50Q208.11 1.75 207.55 2.55L207.55 2.55L207.55 2.55Q207.08 3.20 206.66 4.06L206.66 4.06L206.66 4.06Q205.73 5.91 205.45 8.21L205.45 8.21L205.45 8.21Q205.34 9.15 205.32 9.80L205.32 9.80L205.32 9.80Q205.30 10.74 205.73 11.05L205.73 11.05L205.73 11.05Q206.19 11.39 207.33 11.00L207.33 11.00L207.33 11.00Q207.98 10.77 208.57 10.19L208.57 10.19L208.57 10.19Q209.08 9.71 209.40 8.87L209.40 8.87L209.40 8.87Q209.54 8.48 209.60 8.11L209.60 8.11L209.60 8.11Q209.66 7.72 209.56 7.57L209.56 7.57L209.56 7.57Q209.38 7.29 208.71 7.43L208.71 7.43L208.71 7.43Q207.98 7.58 207.37 8.07L207.37 8.07L207.37 8.07Q207.19 8.21 207.40 8.27L207.40 8.27L207.40 8.27Q207.55 8.31 207.71 8.30L207.71 8.30L207.71 8.30Q207.94 8.28 208.17 8.21L208.17 8.21L208.17 8.21Q208.18 8.48 207.99 9.04L207.99 9.04L207.99 9.04Q207.80 9.59 207.54 9.99L207.54 9.99L207.54 9.99Q207.49 10.06 207.46 10.08L207.46 10.08L207.46 10.08Q207.35 10.21 207.26 10.31L207.26 10.31L207.26 10.31Q207.17 10.40 207.04 10.51L207.04 10.51L207.04 10.51Q206.99 10.45 206.94 10.36L206.94 10.36L206.94 10.36Q206.81 10.13 206.79 9.65L206.79 9.65L206.79 9.65Q206.77 9.36 206.88 8.16L206.88 8.16L206.88 8.16Q207.07 5.98 208.02 3.95L208.02 3.95L208.02 3.95Q208.54 2.84 209.02 2.21L209.02 2.21L209.02 2.21Q209.14 2.51 209.15 2.81L209.15 2.81L209.15 2.81Q209.17 3.19 208.97 3.34L208.97 3.34L208.97 3.34Q208.80 3.47 209.01 3.53L209.01 3.53L209.01 3.53Q209.16 3.58 209.32 3.57L209.32 3.57L209.32 3.57Q209.92 3.51 210.29 3.22L210.29 3.22L210.29 3.22Q210.60 2.98 210.60 2.48L210.60 2.48L210.60 2.48Q210.60 2.06 210.41 1.67L210.41 1.67ZM220.95 5.31L220.95 5.31Q220.80 6.24 219.91 7.18L219.91 7.18L219.91 7.18Q219.71 7.38 219.47 7.58L219.47 7.58L219.47 7.58Q219.41 7.63 219.35 7.68L219.35 7.68L219.35 7.68Q219.13 7.59 218.88 7.58L218.88 7.58L218.88 7.58Q219.44 4.74 219.58 2.66L219.58 2.66L219.58 2.66Q219.85 2.80 220.09 2.99L220.09 2.99L220.09 2.99Q220.60 3.39 220.83 4.03L220.83 4.03L220.83 4.03Q221.06 4.65 220.95 5.31L220.95 5.31ZM217.98 2.40L217.98 2.40Q217.98 2.40 217.99 2.39L217.99 2.39L217.99 2.39Q217.98 2.40 217.98 2.40L217.98 2.40ZM222.91 11.42L222.91 11.42Q222.18 10.88 220.65 8.99L220.65 8.99L220.65 8.99Q219.98 8.17 219.86 8.05L219.86 8.05L219.86 8.05Q220.32 7.84 220.75 7.50L220.75 7.50L220.75 7.50Q221.96 6.56 222.31 5.41L222.31 5.41L222.31 5.41Q222.56 4.60 222.35 3.84L222.35 3.84L222.35 3.84Q222.14 3.07 221.52 2.53L221.52 2.53L221.52 2.53Q220.27 1.46 218.20 1.88L218.20 1.88L218.20 1.88Q218.07 1.91 217.88 1.96L217.88 1.96L217.88 1.96Q217.14 2.14 217.20 2.37L217.20 2.37L217.20 2.37Q217.26 2.58 217.97 2.40L217.97 2.40L217.97 2.40Q218.04 2.39 218.09 2.38L218.09 2.38L218.09 2.38Q218.13 2.37 218.16 2.37L218.16 2.37L218.16 2.37Q218.05 5.11 216.81 10.79L216.81 10.79L216.81 10.79Q216.75 11.04 217.39 10.92L217.39 10.92L217.39 10.92Q217.70 10.87 217.95 10.75L217.95 10.75L217.95 10.75Q218.23 10.62 218.25 10.53L218.25 10.53L218.25 10.53Q218.54 9.17 218.64 8.72L218.64 8.72L218.64 8.72Q218.65 8.72 218.65 8.72L218.65 8.72L218.65 8.72Q218.65 8.72 218.65 8.72L218.65 8.72L218.65 8.72Q218.76 8.85 219.45 9.70L219.45 9.70L219.45 9.70Q220.77 11.34 221.53 11.92L221.53 11.92L221.53 11.92Q221.76 12.09 222.48 11.83L222.48 11.83L222.48 11.83Q222.66 11.76 222.80 11.67L222.80 11.67L222.80 11.67Q223.05 11.52 222.91 11.42L222.91 11.42ZM230.71 2.53L230.71 2.53Q230.46 3.62 229.84 6.79L229.84 6.79L229.84 6.79Q229.61 8.03 229.41 8.93L229.41 8.93L229.41 8.93Q229.02 10.78 229.02 10.91L229.02 10.91L229.02 10.91Q229.02 10.99 229.24 11.00L229.24 11.00L229.24 11.00Q229.46 11.01 229.74 10.96L229.74 10.96L229.74 10.96Q230.47 10.81 230.48 10.52L230.48 10.52L230.48 10.52Q230.49 10.23 230.64 9.62L230.64 9.62L230.64 9.62Q230.72 9.32 230.88 8.57L230.88 8.57L230.88 8.57Q231.05 7.77 231.31 6.44L231.31 6.44L231.31 6.44Q231.90 3.36 232.15 2.27L232.15 2.27L232.15 2.27Q232.20 2.02 231.56 2.13L231.56 2.13L231.56 2.13Q231.26 2.19 231.01 2.31L231.01 2.31L231.01 2.31Q230.73 2.44 230.71 2.53L230.71 2.53ZM243.95 1.54L243.95 1.54Q243.52 0.91 242.34 1.20L242.34 1.20L242.34 1.20Q241.38 1.43 240.74 2.14L240.74 2.14L240.74 2.14Q239.73 3.26 239.30 5.40L239.30 5.40L239.30 5.40Q239.00 6.86 238.91 8.67L238.91 8.67L238.91 8.67Q238.90 9.98 239.03 10.47L239.03 10.47L239.03 10.47Q239.31 11.44 240.39 11.50L240.39 11.50L240.39 11.50Q241.01 11.53 241.60 11.27L241.60 11.27L241.60 11.27Q242.20 10.99 242.57 10.51L242.57 10.51L242.57 10.51Q242.94 10.02 243.28 8.89L243.28 8.89L243.28 8.89Q243.35 8.64 242.70 8.76L242.70 8.76L242.70 8.76Q242.40 8.81 242.14 8.93L242.14 8.93L242.14 8.93Q241.87 9.06 241.84 9.15L241.84 9.15L241.84 9.15Q241.60 9.99 241.32 10.48L241.32 10.48L241.32 10.48Q241.21 10.68 241.08 10.83L241.08 10.83L241.08 10.83Q240.51 10.58 240.39 9.66L240.39 9.66L240.39 9.66Q240.36 9.42 240.37 8.20L240.37 8.20L240.37 8.20Q240.47 6.41 240.78 4.92L240.78 4.92L240.78 4.92Q241.25 2.75 242.28 1.80L242.28 1.80L242.28 1.80Q242.29 1.79 242.32 1.76L242.32 1.76L242.32 1.76Q242.68 2.01 242.78 2.75L242.78 2.75L242.78 2.75Q242.85 3.36 242.64 4.29L242.64 4.29L242.64 4.29Q242.31 5.76 242.30 5.80L242.30 5.80L242.30 5.80Q242.28 5.92 242.66 5.89L242.66 5.89L242.66 5.89Q242.92 5.87 243.09 5.82L243.09 5.82L243.09 5.82Q243.72 5.65 243.76 5.41L243.76 5.41L243.76 5.41Q243.81 5.07 243.97 4.41L243.97 4.41L243.97 4.41Q244.13 3.74 244.19 3.40L244.19 3.40L244.19 3.40Q244.38 2.17 243.95 1.54L243.95 1.54ZM255.30 2.21L255.30 2.21Q254.67 2.38 254.63 2.63L254.63 2.63L254.63 2.63Q254.58 3.01 254.42 4.51L254.42 4.51L254.42 4.51Q254.30 5.69 254.16 6.41L254.16 6.41L254.16 6.41Q253.76 8.57 252.66 9.83L252.66 9.83L252.66 9.83Q252.51 10.00 252.40 10.12L252.40 10.12L252.40 10.12Q252.14 9.61 252.10 8.40L252.10 8.40L252.10 8.40Q252.04 6.90 252.96 4.58L252.96 4.58L252.96 4.58Q253.65 2.88 253.81 2.40L253.81 2.40L253.81 2.40Q253.90 2.15 253.23 2.26L253.23 2.26L253.23 2.26Q252.46 2.41 252.37 2.66L252.37 2.66L252.37 2.66Q252.21 3.12 251.65 4.53L251.65 4.53L251.65 4.53Q251.19 5.71 250.97 6.43L250.97 6.43L250.97 6.43Q250.31 8.66 250.88 10.36L250.88 10.36L250.88 10.36Q250.98 10.68 251.18 10.83L251.18 10.83L251.18 10.83Q251.41 11.03 252.05 10.92L252.05 10.92L252.05 10.92Q253.07 10.73 253.98 9.71L253.98 9.71L253.98 9.71Q255.14 8.41 255.58 6.34L255.58 6.34L255.58 6.34Q255.73 5.55 255.87 4.29L255.87 4.29L255.87 4.29Q256.05 2.58 256.09 2.24L256.09 2.24L256.09 2.24Q256.11 2.11 255.73 2.14L255.73 2.14L255.73 2.14Q255.47 2.16 255.30 2.21L255.30 2.21ZM265.04 11.33L265.04 11.33Q264.00 11.36 263.55 11.16L263.55 11.16L263.55 11.16Q264.41 6.57 265.52 2.08L265.52 2.08L265.52 2.08Q265.59 1.83 264.94 1.95L264.94 1.95L264.94 1.95Q264.64 2.00 264.39 2.12L264.39 2.12L264.39 2.12Q264.11 2.25 264.09 2.34L264.09 2.34L264.09 2.34Q262.96 6.83 262.10 11.47L262.10 11.47L262.10 11.47Q262.01 11.56 262.08 11.61L262.08 11.61L262.08 11.61Q262.08 11.63 262.08 11.70L262.08 11.70L262.08 11.70Q262.07 11.74 262.06 11.78L262.06 11.78L262.06 11.78Q262.04 11.94 262.68 11.83L262.68 11.83L262.68 11.83Q263.18 11.95 264.09 11.92L264.09 11.92L264.09 11.92Q264.69 11.91 265.12 11.65L265.12 11.65L265.12 11.65Q265.30 11.54 265.28 11.44L265.28 11.44L265.28 11.44Q265.25 11.33 265.04 11.33L265.04 11.33ZM277.38 2.35L277.38 2.35Q276.42 2.17 275.42 2.15L275.42 2.15L275.42 2.15Q275.32 2.03 274.85 2.11L274.85 2.11L274.85 2.11Q274.75 2.13 274.63 2.16L274.63 2.16L274.63 2.16Q273.57 2.22 272.53 2.46L272.53 2.46L272.53 2.46Q271.79 2.63 271.86 2.88L271.86 2.88L271.86 2.88Q271.91 3.08 272.63 2.91L272.63 2.91L272.63 2.91Q272.64 2.91 272.65 2.90L272.65 2.90L272.65 2.90Q272.67 2.90 272.68 2.89L272.68 2.89L272.68 2.89Q272.75 2.88 272.91 2.85L272.91 2.85L272.91 2.85Q273.08 2.82 273.30 2.80L273.30 2.80L273.30 2.80Q273.59 2.76 273.92 2.75L273.92 2.75L273.92 2.75Q272.50 7.40 272.10 10.96L272.10 10.96L272.10 10.96Q272.10 11.02 272.32 11.03L272.32 11.03L272.32 11.03Q272.54 11.04 272.82 10.99L272.82 10.99L272.82 10.99Q273.54 10.86 273.57 10.56L273.57 10.56L273.57 10.56Q273.94 7.19 275.26 2.78L275.26 2.78L275.26 2.78Q275.73 2.82 276.17 2.91L276.17 2.91L276.17 2.91Q276.61 2.99 277.20 2.72L277.20 2.72L277.20 2.72Q277.35 2.65 277.45 2.54L277.45 2.54L277.45 2.54Q277.59 2.39 277.38 2.35L277.38 2.35ZM287.61 2.21L287.61 2.21Q286.97 2.38 286.94 2.63L286.94 2.63L286.94 2.63Q286.88 3.01 286.73 4.51L286.73 4.51L286.73 4.51Q286.60 5.69 286.47 6.41L286.47 6.41L286.47 6.41Q286.06 8.57 284.96 9.83L284.96 9.83L284.96 9.83Q284.81 10.00 284.70 10.12L284.70 10.12L284.70 10.12Q284.44 9.61 284.40 8.40L284.40 8.40L284.40 8.40Q284.35 6.90 285.27 4.58L285.27 4.58L285.27 4.58Q285.95 2.88 286.12 2.40L286.12 2.40L286.12 2.40Q286.21 2.15 285.54 2.26L285.54 2.26L285.54 2.26Q284.76 2.41 284.68 2.66L284.68 2.66L284.68 2.66Q284.51 3.12 283.96 4.53L283.96 4.53L283.96 4.53Q283.49 5.71 283.28 6.43L283.28 6.43L283.28 6.43Q282.62 8.66 283.19 10.36L283.19 10.36L283.19 10.36Q283.29 10.68 283.49 10.83L283.49 10.83L283.49 10.83Q283.72 11.03 284.36 10.92L284.36 10.92L284.36 10.92Q285.37 10.73 286.28 9.71L286.28 9.71L286.28 9.71Q287.45 8.41 287.88 6.34L287.88 6.34L287.88 6.34Q288.04 5.55 288.18 4.29L288.18 4.29L288.18 4.29Q288.35 2.58 288.40 2.24L288.40 2.24L288.40 2.24Q288.42 2.11 288.03 2.14L288.03 2.14L288.03 2.14Q287.78 2.16 287.61 2.21L287.61 2.21ZM298.84 5.31L298.84 5.31Q298.69 6.24 297.79 7.18L297.79 7.18L297.79 7.18Q297.60 7.38 297.36 7.58L297.36 7.58L297.36 7.58Q297.30 7.63 297.24 7.68L297.24 7.68L297.24 7.68Q297.02 7.59 296.77 7.58L296.77 7.58L296.77 7.58Q297.33 4.74 297.47 2.66L297.47 2.66L297.47 2.66Q297.74 2.80 297.98 2.99L297.98 2.99L297.98 2.99Q298.49 3.39 298.72 4.03L298.72 4.03L298.72 4.03Q298.95 4.65 298.84 5.31L298.84 5.31ZM295.87 2.40L295.87 2.40Q295.87 2.40 295.88 2.39L295.88 2.39L295.88 2.39Q295.87 2.40 295.87 2.40L295.87 2.40ZM300.80 11.42L300.80 11.42Q300.07 10.88 298.54 8.99L298.54 8.99L298.54 8.99Q297.87 8.17 297.75 8.05L297.75 8.05L297.75 8.05Q298.21 7.84 298.64 7.50L298.64 7.50L298.64 7.50Q299.84 6.56 300.20 5.41L300.20 5.41L300.20 5.41Q300.45 4.60 300.24 3.84L300.24 3.84L300.24 3.84Q300.03 3.07 299.41 2.53L299.41 2.53L299.41 2.53Q298.16 1.46 296.09 1.88L296.09 1.88L296.09 1.88Q295.96 1.91 295.76 1.96L295.76 1.96L295.76 1.96Q295.03 2.14 295.09 2.37L295.09 2.37L295.09 2.37Q295.15 2.58 295.86 2.40L295.86 2.40L295.86 2.40Q295.93 2.39 295.98 2.38L295.98 2.38L295.98 2.38Q296.02 2.37 296.05 2.37L296.05 2.37L296.05 2.37Q295.93 5.11 294.70 10.79L294.70 10.79L294.70 10.79Q294.64 11.04 295.28 10.92L295.28 10.92L295.28 10.92Q295.59 10.87 295.84 10.75L295.84 10.75L295.84 10.75Q296.12 10.62 296.14 10.53L296.14 10.53L296.14 10.53Q296.43 9.17 296.53 8.72L296.53 8.72L296.53 8.72Q296.54 8.72 296.54 8.72L296.54 8.72L296.54 8.72Q296.54 8.72 296.54 8.72L296.54 8.72L296.54 8.72Q296.65 8.85 297.34 9.70L297.34 9.70L297.34 9.70Q298.66 11.34 299.42 11.92L299.42 11.92L299.42 11.92Q299.65 12.09 300.36 11.83L300.36 11.83L300.36 11.83Q300.55 11.76 300.69 11.67L300.69 11.67L300.69 11.67Q300.94 11.52 300.80 11.42L300.80 11.42ZM310.05 7.89L310.05 7.89Q309.95 7.90 309.05 7.84L309.05 7.84L309.05 7.84Q309.46 6.63 309.91 5.57L309.91 5.57L309.91 5.57Q310.08 5.18 310.63 3.95L310.63 3.95L310.63 3.95Q310.60 4.61 310.42 7.85L310.42 7.85L310.42 7.85Q310.25 7.87 310.05 7.89L310.05 7.89ZM311.86 1.18L311.86 1.18Q311.68 1.09 311.29 1.16L311.29 1.16L311.29 1.16Q310.65 1.27 310.44 1.55L310.44 1.55L310.44 1.55Q310.24 1.80 309.46 3.58L309.46 3.58L309.46 3.58Q309.33 3.90 308.96 4.70L308.96 4.70L308.96 4.70Q308.65 5.42 308.47 5.83L308.47 5.83L308.47 5.83Q308.05 6.79 307.68 7.86L307.68 7.86L307.68 7.86Q306.76 7.97 306.11 8.37L306.11 8.37L306.11 8.37Q305.93 8.48 305.96 8.58L305.96 8.58L305.96 8.58Q305.98 8.67 306.19 8.68L306.19 8.68L306.19 8.68Q306.71 8.70 307.18 8.43L307.18 8.43L307.18 8.43Q307.32 8.41 307.37 8.41L307.37 8.41L307.37 8.41Q307.43 8.41 307.49 8.41L307.49 8.41L307.49 8.41Q307.17 9.39 306.85 10.53L306.85 10.53L306.85 10.53Q306.78 10.79 307.44 10.67L307.44 10.67L307.44 10.67Q307.74 10.62 307.99 10.49L307.99 10.49L307.99 10.49Q308.27 10.37 308.29 10.27L308.29 10.27L308.29 10.27Q308.56 9.32 308.83 8.48L308.83 8.48L308.83 8.48Q309.13 8.50 309.33 8.47L309.33 8.47L309.33 8.47Q310.03 8.39 310.39 8.46L310.39 8.46L310.39 8.46Q310.28 10.55 310.28 12.02L310.28 12.02L310.28 12.02Q310.28 12.10 310.50 12.11L310.50 12.11L310.50 12.11Q310.72 12.12 311.01 12.06L311.01 12.06L311.01 12.06Q311.74 11.91 311.74 11.62L311.74 11.62L311.74 11.62Q311.74 9.90 311.94 6.45L311.94 6.45L311.94 6.45Q312.14 3.00 312.14 1.27L312.14 1.27L312.14 1.27Q312.14 1.18 311.86 1.18L311.86 1.18ZM321.99 11.33L321.99 11.33Q320.95 11.36 320.51 11.16L320.51 11.16L320.51 11.16Q321.36 6.57 322.48 2.08L322.48 2.08L322.48 2.08Q322.55 1.83 321.90 1.95L321.90 1.95L321.90 1.95Q321.60 2.00 321.34 2.12L321.34 2.12L321.34 2.12Q321.06 2.25 321.04 2.34L321.04 2.34L321.04 2.34Q319.92 6.83 319.06 11.47L319.06 11.47L319.06 11.47Q318.97 11.56 319.04 11.61L319.04 11.61L319.04 11.61Q319.04 11.63 319.03 11.70L319.03 11.70L319.03 11.70Q319.03 11.74 319.02 11.78L319.02 11.78L319.02 11.78Q319.00 11.94 319.64 11.83L319.64 11.83L319.64 11.83Q320.13 11.95 321.04 11.92L321.04 11.92L321.04 11.92Q321.65 11.91 322.08 11.65L322.08 11.65L322.08 11.65Q322.25 11.54 322.23 11.44L322.23 11.44L322.23 11.44Q322.21 11.33 321.99 11.33L321.99 11.33ZM344.67 1.54L344.67 1.54Q344.24 0.91 343.05 1.20L343.05 1.20L343.05 1.20Q342.10 1.43 341.46 2.14L341.46 2.14L341.46 2.14Q340.44 3.26 340.01 5.40L340.01 5.40L340.01 5.40Q339.72 6.86 339.62 8.67L339.62 8.67L339.62 8.67Q339.61 9.98 339.75 10.47L339.75 10.47L339.75 10.47Q340.02 11.44 341.11 11.50L341.11 11.50L341.11 11.50Q341.73 11.53 342.32 11.27L342.32 11.27L342.32 11.27Q342.91 10.99 343.28 10.51L343.28 10.51L343.28 10.51Q343.66 10.02 343.99 8.89L343.99 8.89L343.99 8.89Q344.07 8.64 343.41 8.76L343.41 8.76L343.41 8.76Q343.11 8.81 342.86 8.93L342.86 8.93L342.86 8.93Q342.58 9.06 342.56 9.15L342.56 9.15L342.56 9.15Q342.31 9.99 342.04 10.48L342.04 10.48L342.04 10.48Q341.92 10.68 341.79 10.83L341.79 10.83L341.79 10.83Q341.22 10.58 341.10 9.66L341.10 9.66L341.10 9.66Q341.07 9.42 341.09 8.20L341.09 8.20L341.09 8.20Q341.18 6.41 341.50 4.92L341.50 4.92L341.50 4.92Q341.96 2.75 342.99 1.80L342.99 1.80L342.99 1.80Q343.01 1.79 343.03 1.76L343.03 1.76L343.03 1.76Q343.40 2.01 343.49 2.75L343.49 2.75L343.49 2.75Q343.57 3.36 343.36 4.29L343.36 4.29L343.36 4.29Q343.02 5.76 343.01 5.80L343.01 5.80L343.01 5.80Q342.99 5.92 343.38 5.89L343.38 5.89L343.38 5.89Q343.64 5.87 343.80 5.82L343.80 5.82L343.80 5.82Q344.44 5.65 344.48 5.41L344.48 5.41L344.48 5.41Q344.52 5.07 344.68 4.41L344.68 4.41L344.68 4.41Q344.85 3.74 344.90 3.40L344.90 3.40L344.90 3.40Q345.09 2.17 344.67 1.54L344.67 1.54ZM354.74 5.20L354.74 5.20Q354.61 6.64 354.35 7.92L354.35 7.92L354.35 7.92Q353.94 9.88 353.17 10.64L353.17 10.64L353.17 10.64Q353.08 10.55 353.00 10.38L353.00 10.38L353.00 10.38Q352.82 9.97 352.83 9.03L352.83 9.03L352.83 9.03Q352.86 7.34 353.43 5.48L353.43 5.48L353.43 5.48Q353.93 3.85 354.63 3.01L354.63 3.01L354.63 3.01Q354.70 3.25 354.75 3.62L354.75 3.62L354.75 3.62Q354.82 4.21 354.74 5.20L354.74 5.20ZM355.67 1.96L355.67 1.96Q355.46 1.79 354.72 2.05L354.72 2.05L354.72 2.05Q354.22 2.24 354.25 2.39L354.25 2.39L354.25 2.39Q353.99 2.48 353.81 2.63L353.81 2.63L353.81 2.63Q352.83 3.40 352.17 5.22L352.17 5.22L352.17 5.22Q351.62 6.70 351.43 8.50L351.43 8.50L351.43 8.50Q351.35 9.28 351.37 9.92L351.37 9.92L351.37 9.92Q351.42 10.77 351.78 11.13L351.78 11.13L351.78 11.13Q351.96 11.31 352.39 11.33L352.39 11.33L352.39 11.33Q352.93 11.36 353.76 11.02L353.76 11.02L353.76 11.02Q354.44 10.74 354.96 9.94L354.96 9.94L354.96 9.94Q355.43 9.21 355.75 7.85L355.75 7.85L355.75 7.85Q355.96 6.94 356.08 5.84L356.08 5.84L356.08 5.84Q356.25 4.44 356.25 3.78L356.25 3.78L356.25 3.78Q356.23 2.45 355.67 1.96L355.67 1.96ZM370.14 2.21L370.14 2.21Q370.10 2.05 369.54 2.15L369.54 2.15L369.54 2.15Q368.85 2.28 368.68 2.54L368.68 2.54L368.68 2.54Q367.81 4.03 366.87 6.51L366.87 6.51L366.87 6.41L366.87 6.41Q366.87 5.55 366.71 2.12L366.71 2.12L366.71 2.12Q366.70 2.03 366.47 2.02L366.47 2.02L366.47 2.02Q366.32 1.92 365.91 2.00L365.91 2.00L365.91 2.00Q365.20 2.13 365.05 2.39L365.05 2.39L365.05 2.39Q362.92 6.30 362.31 11.14L362.31 11.14L362.31 11.14Q362.30 11.27 362.68 11.23L362.68 11.23L362.68 11.23Q362.93 11.21 363.10 11.16L363.10 11.16L363.10 11.16Q363.75 10.99 363.77 10.75L363.77 10.75L363.77 10.75Q364.18 7.51 365.35 4.58L365.35 4.58L365.35 4.58Q365.40 5.81 365.41 6.71L365.41 6.71L365.41 6.71Q365.42 8.26 365.33 8.86L365.33 8.86L365.33 8.86Q365.15 10.15 365.14 10.99L365.14 10.99L365.14 10.99Q365.14 11.20 365.83 11.03L365.83 11.03L365.83 11.03Q366.50 10.86 366.59 10.66L366.59 10.66L366.59 10.66Q367.07 9.61 367.79 7.67L367.79 7.67L367.79 7.67Q368.57 5.54 368.94 4.66L368.94 4.66L368.94 4.66Q368.98 5.91 368.74 7.85L368.74 7.85L368.74 7.85Q368.41 10.57 368.38 11.04L368.38 11.04L368.38 11.04Q368.37 11.12 368.59 11.12L368.59 11.12L368.59 11.12Q368.81 11.13 369.09 11.08L369.09 11.08L369.09 11.08Q369.81 10.94 369.84 10.65L369.84 10.65L369.84 10.65Q369.89 9.88 370.07 8.54L370.07 8.54L370.07 8.54Q370.26 7.03 370.32 6.43L370.32 6.43L370.32 6.43Q370.56 3.95 370.14 2.21L370.14 2.21ZM384.58 2.21L384.58 2.21Q384.54 2.05 383.98 2.15L383.98 2.15L383.98 2.15Q383.28 2.28 383.12 2.54L383.12 2.54L383.12 2.54Q382.25 4.03 381.31 6.51L381.31 6.51L381.31 6.41L381.31 6.41Q381.31 5.55 381.14 2.12L381.14 2.12L381.14 2.12Q381.14 2.03 380.91 2.02L380.91 2.02L380.91 2.02Q380.76 1.92 380.34 2.00L380.34 2.00L380.34 2.00Q379.63 2.13 379.49 2.39L379.49 2.39L379.49 2.39Q377.36 6.30 376.75 11.14L376.75 11.14L376.75 11.14Q376.74 11.27 377.12 11.23L377.12 11.23L377.12 11.23Q377.36 11.21 377.54 11.16L377.54 11.16L377.54 11.16Q378.18 10.99 378.21 10.75L378.21 10.75L378.21 10.75Q378.62 7.51 379.78 4.58L379.78 4.58L379.78 4.58Q379.84 5.81 379.85 6.71L379.85 6.71L379.85 6.71Q379.85 8.26 379.77 8.86L379.77 8.86L379.77 8.86Q379.59 10.15 379.58 10.99L379.58 10.99L379.58 10.99Q379.58 11.20 380.26 11.03L380.26 11.03L380.26 11.03Q380.94 10.86 381.03 10.66L381.03 10.66L381.03 10.66Q381.51 9.61 382.22 7.67L382.22 7.67L382.22 7.67Q383.01 5.54 383.38 4.66L383.38 4.66L383.38 4.66Q383.42 5.91 383.18 7.85L383.18 7.85L383.18 7.85Q382.85 10.57 382.81 11.04L382.81 11.04L382.81 11.04Q382.81 11.12 383.02 11.12L383.02 11.12L383.02 11.12Q383.24 11.13 383.52 11.08L383.52 11.08L383.52 11.08Q384.25 10.94 384.28 10.65L384.28 10.65L384.28 10.65Q384.33 9.88 384.51 8.54L384.51 8.54L384.51 8.54Q384.70 7.03 384.76 6.43L384.76 6.43L384.76 6.43Q385 3.95 384.58 2.21L384.58 2.21ZM396.44 2.21L396.44 2.21Q395.80 2.38 395.77 2.63L395.77 2.63L395.77 2.63Q395.71 3.01 395.55 4.51L395.55 4.51L395.55 4.51Q395.43 5.69 395.29 6.41L395.29 6.41L395.29 6.41Q394.89 8.57 393.79 9.83L393.79 9.83L393.79 9.83Q393.64 10.00 393.53 10.12L393.53 10.12L393.53 10.12Q393.27 9.61 393.23 8.40L393.23 8.40L393.23 8.40Q393.18 6.90 394.10 4.58L394.10 4.58L394.10 4.58Q394.78 2.88 394.95 2.40L394.95 2.40L394.95 2.40Q395.04 2.15 394.37 2.26L394.37 2.26L394.37 2.26Q393.59 2.41 393.50 2.66L393.50 2.66L393.50 2.66Q393.34 3.12 392.79 4.53L392.79 4.53L392.79 4.53Q392.32 5.71 392.11 6.43L392.11 6.43L392.11 6.43Q391.45 8.66 392.01 10.36L392.01 10.36L392.01 10.36Q392.12 10.68 392.31 10.83L392.31 10.83L392.31 10.83Q392.55 11.03 393.19 10.92L393.19 10.92L393.19 10.92Q394.20 10.73 395.11 9.71L395.11 9.71L395.11 9.71Q396.28 8.41 396.71 6.34L396.71 6.34L396.71 6.34Q396.87 5.55 397.00 4.29L397.00 4.29L397.00 4.29Q397.18 2.58 397.23 2.24L397.23 2.24L397.23 2.24Q397.24 2.11 396.86 2.14L396.86 2.14L396.86 2.14Q396.61 2.16 396.44 2.21L396.44 2.21ZM409.70 0.74L409.70 0.74Q409.39 0.79 409.14 0.91L409.14 0.91L409.14 0.91Q408.86 1.04 408.84 1.13L408.84 1.13L408.84 1.13Q407.96 3.96 407.33 7.39L407.33 7.39L407.33 7.39Q407.25 6.88 407.13 6.21L407.13 6.21L407.13 6.21Q406.84 4.44 406.79 4.05L406.79 4.05L406.79 4.05Q406.64 2.77 406.45 2.37L406.45 2.37L406.45 2.37Q406.45 2.37 406.44 2.35L406.44 2.35L406.44 2.34L406.44 2.34Q406.44 2.34 406.44 2.33L406.44 2.33L406.44 2.33Q406.49 2.08 405.86 2.20L405.86 2.20L405.86 2.20Q405.56 2.26 405.30 2.37L405.30 2.37L405.30 2.37Q405.02 2.51 405.00 2.60L405.00 2.60L405.00 2.60Q404.82 3.71 404.17 6.73L404.17 6.73L404.17 6.73Q403.63 9.34 403.42 10.89L403.42 10.89L403.42 10.89Q403.41 11.01 403.79 10.98L403.79 10.98L403.79 10.98Q404.04 10.96 404.22 10.91L404.22 10.91L404.22 10.91Q404.86 10.74 404.89 10.50L404.89 10.50L404.89 10.50Q405.08 8.97 405.64 6.38L405.64 6.38L405.64 6.38Q405.67 6.54 405.67 6.61L405.67 6.61L405.67 6.61Q405.89 7.90 406.07 8.95L406.07 8.95L406.07 8.95Q406.33 10.45 406.55 11.09L406.55 11.09L406.55 11.09Q406.61 11.24 406.95 11.21L406.95 11.21L406.95 11.21Q407.26 11.18 407.60 11.05L407.60 11.05L407.60 11.05Q408.19 10.89 408.22 10.65L408.22 10.65L408.22 10.65Q408.99 5.00 410.28 0.87L410.28 0.87L410.28 0.87Q410.36 0.62 409.70 0.74L409.70 0.74ZM417.61 2.53L417.61 2.53Q417.37 3.62 416.75 6.79L416.75 6.79L416.75 6.79Q416.51 8.03 416.32 8.93L416.32 8.93L416.32 8.93Q415.93 10.78 415.93 10.91L415.93 10.91L415.93 10.91Q415.93 10.99 416.15 11.00L416.15 11.00L416.15 11.00Q416.37 11.01 416.65 10.96L416.65 10.96L416.65 10.96Q417.38 10.81 417.39 10.52L417.39 10.52L417.39 10.52Q417.40 10.23 417.55 9.62L417.55 9.62L417.55 9.62Q417.63 9.32 417.79 8.57L417.79 8.57L417.79 8.57Q417.96 7.77 418.22 6.44L418.22 6.44L418.22 6.44Q418.81 3.36 419.06 2.27L419.06 2.27L419.06 2.27Q419.11 2.02 418.47 2.13L418.47 2.13L418.47 2.13Q418.17 2.19 417.92 2.31L417.92 2.31L417.92 2.31Q417.63 2.44 417.61 2.53L417.61 2.53ZM430.55 2.35L430.55 2.35Q429.60 2.17 428.59 2.15L428.59 2.15L428.59 2.15Q428.50 2.03 428.02 2.11L428.02 2.11L428.02 2.11Q427.92 2.13 427.81 2.16L427.81 2.16L427.81 2.16Q426.74 2.22 425.70 2.46L425.70 2.46L425.70 2.46Q424.96 2.63 425.03 2.88L425.03 2.88L425.03 2.88Q425.08 3.08 425.80 2.91L425.80 2.91L425.80 2.91Q425.81 2.91 425.82 2.90L425.82 2.90L425.82 2.90Q425.84 2.90 425.85 2.89L425.85 2.89L425.85 2.89Q425.93 2.88 426.08 2.85L426.08 2.85L426.08 2.85Q426.25 2.82 426.47 2.80L426.47 2.80L426.47 2.80Q426.76 2.76 427.09 2.75L427.09 2.75L427.09 2.75Q425.67 7.40 425.28 10.96L425.28 10.96L425.28 10.96Q425.27 11.02 425.50 11.03L425.50 11.03L425.50 11.03Q425.71 11.04 425.99 10.99L425.99 10.99L425.99 10.99Q426.71 10.86 426.74 10.56L426.74 10.56L426.74 10.56Q427.12 7.19 428.44 2.78L428.44 2.78L428.44 2.78Q428.91 2.82 429.34 2.91L429.34 2.91L429.34 2.91Q429.78 2.99 430.37 2.72L430.37 2.72L430.37 2.72Q430.53 2.65 430.62 2.54L430.62 2.54L430.62 2.54Q430.77 2.39 430.55 2.35L430.55 2.35ZM442.13 1.12L442.13 1.12Q442.10 0.90 441.36 1.07L441.36 1.07L441.36 1.07Q440.63 1.25 440.67 1.51L440.67 1.51L440.67 1.51Q440.86 2.73 440.63 4.12L440.63 4.12L440.63 4.12Q440.36 5.76 439.61 6.75L439.61 6.75L439.61 6.75Q439.46 6.95 439.21 7.16L439.21 7.16L439.21 7.16Q439.14 7.23 439.03 7.29L439.03 7.29L439.03 7.29Q439.04 7.29 438.96 7.34L438.96 7.34L438.95 7.34L438.95 7.34Q438.95 7.34 438.95 7.34L438.95 7.34L438.95 7.34Q438.87 7.36 438.81 7.38L438.81 7.38L438.80 7.37L438.80 7.37Q438.79 7.37 438.79 7.37L438.79 7.37L438.79 7.37Q438.75 7.36 438.68 7.35L438.68 7.35L438.68 7.35Q438.68 7.35 438.65 7.33L438.65 7.33L438.65 7.33Q438.64 7.33 438.62 7.33L438.62 7.33L438.62 7.33Q438.03 7.06 438.03 5.83L438.03 5.83L438.03 5.83Q438.03 4.47 439.00 1.59L439.00 1.59L439.00 1.59Q439.08 1.34 438.41 1.46L438.41 1.46L438.41 1.46Q437.64 1.60 437.55 1.85L437.55 1.85L437.55 1.85Q436.69 4.44 436.58 5.87L436.58 5.87L436.58 5.87Q436.49 7.12 437.00 7.65L437.00 7.65L437.00 7.65Q437.27 7.94 437.88 7.96L437.88 7.96L437.88 7.96Q438.03 7.97 438.18 7.96L438.18 7.96L438.18 7.96Q438.13 8.59 437.60 10.68L437.60 10.68L437.60 10.68Q437.54 10.94 438.18 10.82L438.18 10.82L438.18 10.82Q438.49 10.77 438.74 10.65L438.74 10.65L438.74 10.65Q439.02 10.52 439.04 10.42L439.04 10.42L439.04 10.42Q439.58 8.28 439.65 7.59L439.65 7.59L439.65 7.59Q439.69 7.57 439.69 7.57L439.69 7.57L439.69 7.57Q441.28 6.90 441.90 4.67L441.90 4.67L441.90 4.67Q442.40 2.84 442.13 1.12L442.13 1.12Z"></path></g></svg>