<svg data-v-423bf9ae="" xmlns="http://www.w3.org/2000/svg" viewBox="0 0 341.78054749199447 60" class="font"><!----><!----><!----><g data-v-423bf9ae="" id="ec634e7c-cbd9-4b59-a967-737095aa8bd0" fill="black" transform="matrix(4.1407868148896405,0,0,4.1407868148896405,-4.596277532651328,-29.56521778229451)"><path d="M7.08 13.13L7.08 13.13Q7.73 15.12 8.49 16.58L8.49 16.58L8.49 16.58Q9.25 18.03 9.93 18.54L9.93 18.54L9.93 18.54Q9.67 18.79 9.16 18.98L9.16 18.98L9.16 18.98Q8.65 19.18 8.25 19.18L8.25 19.18L8.25 19.18Q7.67 19.18 7.28 18.97L7.28 18.97L7.28 18.97Q6.89 18.76 6.56 18.26L6.56 18.26L6.56 18.26Q6.23 17.77 5.87 16.84L5.87 16.84L4.91 14.42L3.89 15.02L3.89 15.02Q3.63 16.65 3.63 17.12L3.63 17.12L3.63 17.12Q3.63 17.67 3.72 18.03L3.72 18.03L3.72 18.03Q3.81 18.38 4.00 18.66L4.00 18.66L4.00 18.66Q3.33 19.19 2.53 19.19L2.53 19.19L2.53 19.19Q1.78 19.19 1.44 18.82L1.44 18.82L1.44 18.82Q1.11 18.44 1.11 17.60L1.11 17.60L1.11 17.60Q1.11 16.88 1.30 15.46L1.30 15.46L1.30 15.46Q1.50 14.03 2.06 10.77L2.06 10.77L1.44 9.52L1.44 9.52Q2.77 8.67 3.85 8.67L3.85 8.67L3.85 8.67Q4.75 8.67 4.75 9.76L4.75 9.76L4.75 9.76Q4.75 10.00 4.59 10.95L4.59 10.95L4.59 10.95Q4.44 11.90 4.26 12.96L4.26 12.96L4.14 13.58L4.70 13.16L4.70 13.16Q6.05 12.15 6.67 11.34L6.67 11.34L6.67 11.34Q7.29 10.53 7.29 9.77L7.29 9.77L7.29 9.77Q7.29 9.49 7.18 9.18L7.18 9.18L7.18 9.18Q7.98 8.68 8.75 8.68L8.75 8.68L8.75 8.68Q9.32 8.68 9.65 8.97L9.65 8.97L9.65 8.97Q9.97 9.27 9.97 9.83L9.97 9.83L9.97 9.83Q9.97 10.58 9.28 11.38L9.28 11.38L9.28 11.38Q8.58 12.18 7.08 13.13L7.08 13.13ZM12.45 19.18L12.45 19.18Q11.73 19.18 11.40 18.80L11.40 18.80L11.40 18.80Q11.07 18.42 11.07 17.67L11.07 17.67L11.07 17.67Q11.07 17.14 11.39 15.43L11.39 15.43L11.39 15.43Q11.70 13.72 12.10 12.14L12.10 12.14L11.40 11.19L11.40 11.19Q12.38 10.44 13.17 10.44L13.17 10.44L13.17 10.44Q13.68 10.44 13.92 10.70L13.92 10.70L13.92 10.70Q14.17 10.95 14.17 11.40L14.17 11.40L14.17 11.40Q14.17 11.84 14.04 12.31L14.04 12.31L14.04 12.31Q13.92 12.77 13.68 13.37L13.68 13.37L13.82 13.44L13.82 13.44Q14.41 11.91 15.02 11.17L15.02 11.17L15.02 11.17Q15.62 10.43 16.49 10.43L16.49 10.43L16.49 10.43Q17.07 10.43 17.39 10.74L17.39 10.74L17.39 10.74Q17.71 11.05 17.71 11.59L17.71 11.59L17.71 11.59Q17.71 12.22 17.28 12.62L17.28 12.62L17.28 12.62Q16.86 13.02 16.10 13.02L16.10 13.02L16.10 13.02Q15.41 13.02 14.81 13.64L14.81 13.64L14.81 13.64Q14.21 14.27 13.85 15.32L13.85 15.32L13.85 15.32Q13.48 16.37 13.48 17.54L13.48 17.54L13.48 17.54Q13.48 18.26 13.73 18.61L13.73 18.61L13.73 18.61Q13.12 19.18 12.45 19.18L12.45 19.18ZM20.87 9.49L20.87 9.49Q20.30 9.49 19.94 9.22L19.94 9.22L19.94 9.22Q19.59 8.95 19.59 8.47L19.59 8.47L19.59 8.47Q19.59 7.88 20.09 7.51L20.09 7.51L20.09 7.51Q20.59 7.14 21.22 7.14L21.22 7.14L21.22 7.14Q21.80 7.14 22.16 7.41L22.16 7.41L22.16 7.41Q22.51 7.69 22.51 8.15L22.51 8.15L22.51 8.15Q22.51 8.74 22.03 9.11L22.03 9.11L22.03 9.11Q21.55 9.49 20.87 9.49L20.87 9.49ZM19.87 19.18L19.87 19.18Q19.15 19.18 18.82 18.82L18.82 18.82L18.82 18.82Q18.49 18.47 18.49 17.74L18.49 17.74L18.49 17.74Q18.49 17.18 18.75 15.83L18.75 15.83L18.75 15.83Q19.01 14.48 19.50 12.29L19.50 12.29L18.79 11.30L18.79 11.30Q19.32 10.91 19.94 10.67L19.94 10.67L19.94 10.67Q20.55 10.43 21.08 10.43L21.08 10.43L21.08 10.43Q21.60 10.43 21.82 10.65L21.82 10.65L21.82 10.65Q22.04 10.86 22.04 11.37L22.04 11.37L22.04 11.37Q22.04 11.56 21.71 12.92L21.71 12.92L21.71 12.92Q21.35 14.43 21.13 15.58L21.13 15.58L21.13 15.58Q20.90 16.72 20.90 17.54L20.90 17.54L20.90 17.54Q20.90 18.33 21.27 18.61L21.27 18.61L21.27 18.61Q20.61 19.18 19.87 19.18L19.87 19.18ZM26.66 19.18L26.66 19.18Q25.00 19.18 24.19 18.75L24.19 18.75L24.19 18.75Q23.37 18.31 23.37 17.56L23.37 17.56L23.37 17.56Q23.37 17.23 23.56 16.90L23.56 16.90L23.56 16.90Q23.76 16.56 24.11 16.32L24.11 16.32L24.11 16.32Q24.49 17.01 25.10 17.39L25.10 17.39L25.10 17.39Q25.70 17.77 26.53 17.77L26.53 17.77L26.53 17.77Q27.20 17.77 27.74 17.49L27.74 17.49L27.74 17.49Q28.28 17.21 28.28 16.69L28.28 16.69L28.28 16.69Q28.28 16.37 27.90 16.16L27.90 16.16L27.90 16.16Q27.51 15.96 26.70 15.71L26.70 15.71L26.70 15.71Q25.82 15.43 25.24 15.17L25.24 15.17L25.24 15.17Q24.67 14.91 24.26 14.43L24.26 14.43L24.26 14.43Q23.84 13.96 23.84 13.23L23.84 13.23L23.84 13.23Q23.84 11.87 25.07 11.15L25.07 11.15L25.07 11.15Q26.31 10.43 28.21 10.43L28.21 10.43L28.21 10.43Q29.55 10.43 30.35 10.84L30.35 10.84L30.35 10.84Q31.15 11.24 31.15 11.90L31.15 11.90L31.15 11.90Q31.15 12.49 30.74 12.82L30.74 12.82L30.74 12.82Q30.34 13.15 29.74 13.15L29.74 13.15L29.74 13.15Q29.18 13.15 28.72 12.79L28.72 12.79L28.72 12.79Q28.27 12.43 28.01 11.76L28.01 11.76L28.01 11.76Q27.22 11.83 26.70 12.16L26.70 12.16L26.70 12.16Q26.18 12.49 26.18 12.95L26.18 12.95L26.18 12.95Q26.18 13.30 26.56 13.50L26.56 13.50L26.56 13.50Q26.94 13.71 27.79 13.99L27.79 13.99L27.79 13.99Q28.66 14.27 29.23 14.53L29.23 14.53L29.23 14.53Q29.81 14.78 30.21 15.27L30.21 15.27L30.21 15.27Q30.62 15.75 30.62 16.49L30.62 16.49L30.62 16.49Q30.62 17.35 30.04 17.96L30.04 17.96L30.04 17.96Q29.47 18.56 28.57 18.87L28.57 18.87L28.57 18.87Q27.66 19.18 26.66 19.18L26.66 19.18ZM34.02 19.18L34.02 19.18Q33.31 19.18 32.98 18.82L32.98 18.82L32.98 18.82Q32.65 18.45 32.65 17.74L32.65 17.74L32.65 17.74Q32.65 16.80 33.67 11.63L33.67 11.63L34.02 9.80L33.29 8.83L33.29 8.83Q33.80 8.46 34.41 8.22L34.41 8.22L34.41 8.22Q35.01 7.98 35.52 7.98L35.52 7.98L35.52 7.98Q36.06 7.98 36.30 8.19L36.30 8.19L36.30 8.19Q36.54 8.40 36.54 8.89L36.54 8.89L36.54 8.89Q36.54 9.20 36.44 9.67L36.44 9.67L36.44 9.67Q36.34 10.14 36.12 11.07L36.12 11.07L36.12 11.07Q36.06 11.34 35.91 11.97L35.91 11.97L35.91 11.97Q35.76 12.60 35.64 13.15L35.64 13.15L35.78 13.22L35.78 13.22Q36.58 11.80 37.61 11.12L37.61 11.12L37.61 11.12Q38.64 10.43 39.70 10.43L39.70 10.43L39.70 10.43Q40.59 10.43 41.01 10.86L41.01 10.86L41.01 10.86Q41.44 11.28 41.44 12.19L41.44 12.19L41.44 12.19Q41.44 12.70 41.34 13.23L41.34 13.23L41.34 13.23Q41.24 13.76 41.02 14.69L41.02 14.69L41.02 14.69Q40.80 15.60 40.67 16.25L40.67 16.25L40.67 16.25Q40.54 16.91 40.54 17.54L40.54 17.54L40.54 17.54Q40.54 17.88 40.61 18.17L40.61 18.17L40.61 18.17Q40.68 18.45 40.80 18.61L40.80 18.61L40.80 18.61Q40.18 19.18 39.51 19.18L39.51 19.18L39.51 19.18Q38.79 19.18 38.47 18.82L38.47 18.82L38.47 18.82Q38.14 18.45 38.14 17.74L38.14 17.74L38.14 17.74Q38.14 17.18 38.26 16.54L38.26 16.54L38.26 16.54Q38.39 15.90 38.63 15.02L38.63 15.02L38.63 15.02Q38.82 14.25 38.91 13.82L38.91 13.82L38.91 13.82Q39.00 13.38 39.00 13.03L39.00 13.03L39.00 13.03Q39.00 12.24 38.37 12.24L38.37 12.24L38.37 12.24Q37.72 12.24 36.93 12.94L36.93 12.94L36.93 12.94Q36.15 13.64 35.60 14.85L35.60 14.85L35.60 14.85Q35.06 16.07 35.06 17.54L35.06 17.54L35.06 17.54Q35.06 18.28 35.29 18.61L35.29 18.61L35.29 18.61Q34.71 19.18 34.02 19.18L34.02 19.18ZM45.72 9.49L45.72 9.49Q45.15 9.49 44.79 9.22L44.79 9.22L44.79 9.22Q44.44 8.95 44.44 8.47L44.44 8.47L44.44 8.47Q44.44 7.88 44.94 7.51L44.94 7.51L44.94 7.51Q45.44 7.14 46.07 7.14L46.07 7.14L46.07 7.14Q46.65 7.14 47.01 7.41L47.01 7.41L47.01 7.41Q47.36 7.69 47.36 8.15L47.36 8.15L47.36 8.15Q47.36 8.74 46.88 9.11L46.88 9.11L46.88 9.11Q46.40 9.49 45.72 9.49L45.72 9.49ZM44.72 19.18L44.72 19.18Q44.00 19.18 43.67 18.82L43.67 18.82L43.67 18.82Q43.34 18.47 43.34 17.74L43.34 17.74L43.34 17.74Q43.34 17.18 43.60 15.83L43.60 15.83L43.60 15.83Q43.86 14.48 44.35 12.29L44.35 12.29L43.64 11.30L43.64 11.30Q44.17 10.91 44.79 10.67L44.79 10.67L44.79 10.67Q45.40 10.43 45.93 10.43L45.93 10.43L45.93 10.43Q46.45 10.43 46.67 10.65L46.67 10.65L46.67 10.65Q46.89 10.86 46.89 11.37L46.89 11.37L46.89 11.37Q46.89 11.56 46.56 12.92L46.56 12.92L46.56 12.92Q46.20 14.43 45.98 15.58L45.98 15.58L45.98 15.58Q45.75 16.72 45.75 17.54L45.75 17.54L45.75 17.54Q45.75 18.33 46.12 18.61L46.12 18.61L46.12 18.61Q45.46 19.18 44.72 19.18L44.72 19.18ZM58.59 9.76L58.59 9.76Q58.59 10.15 58.11 12.82L58.11 12.82L58.11 12.82Q57.81 14.55 57.64 15.62L57.64 15.62L57.64 15.62Q57.47 16.69 57.47 17.12L57.47 17.12L57.47 17.12Q57.47 17.67 57.56 18.03L57.56 18.03L57.56 18.03Q57.65 18.40 57.86 18.66L57.86 18.66L57.86 18.66Q57.15 19.19 56.38 19.19L56.38 19.19L56.38 19.19Q55.62 19.19 55.29 18.82L55.29 18.82L55.29 18.82Q54.95 18.44 54.95 17.60L54.95 17.60L54.95 17.60Q54.95 16.81 55.23 14.97L55.23 14.97L51.56 14.97L51.56 14.97Q51.28 16.58 51.28 17.12L51.28 17.12L51.28 17.12Q51.28 17.67 51.37 18.03L51.37 18.03L51.37 18.03Q51.46 18.38 51.66 18.66L51.66 18.66L51.66 18.66Q50.96 19.19 50.19 19.19L50.19 19.19L50.19 19.19Q49.43 19.19 49.10 18.82L49.10 18.82L49.10 18.82Q48.76 18.44 48.76 17.60L48.76 17.60L48.76 17.60Q48.76 16.90 48.96 15.51L48.96 15.51L48.96 15.51Q49.15 14.13 49.71 10.77L49.71 10.77L49.10 9.52L49.10 9.52Q50.43 8.67 51.51 8.67L51.51 8.67L51.51 8.67Q52.40 8.67 52.40 9.76L52.40 9.76L52.40 9.76Q52.40 10.12 51.88 13.03L51.88 13.03L51.80 13.55L55.45 13.55L55.92 10.77L55.29 9.52L55.29 9.52Q56.62 8.67 57.69 8.67L57.69 8.67L57.69 8.67Q58.59 8.67 58.59 9.76L58.59 9.76ZM67.84 12.45L67.84 12.45Q67.84 13.41 67.19 14.11L67.19 14.11L67.19 14.11Q66.53 14.81 65.28 15.19L65.28 15.19L65.28 15.19Q64.04 15.57 62.31 15.58L62.31 15.58L62.31 15.76L62.31 15.76Q62.31 16.79 62.68 17.36L62.68 17.36L62.68 17.36Q63.04 17.93 63.69 17.93L63.69 17.93L63.69 17.93Q64.47 17.93 64.97 17.39L64.97 17.39L64.97 17.39Q65.48 16.84 65.52 15.95L65.52 15.95L65.52 15.95Q66.25 15.95 66.63 16.22L66.63 16.22L66.63 16.22Q67.02 16.49 67.02 17.01L67.02 17.01L67.02 17.01Q67.02 17.60 66.54 18.10L66.54 18.10L66.54 18.10Q66.07 18.59 65.25 18.89L65.25 18.89L65.25 18.89Q64.43 19.18 63.43 19.18L63.43 19.18L63.43 19.18Q61.80 19.18 60.87 18.26L60.87 18.26L60.87 18.26Q59.95 17.33 59.95 15.71L59.95 15.71L59.95 15.71Q59.95 14.21 60.64 13.01L60.64 13.01L60.64 13.01Q61.33 11.80 62.55 11.12L62.55 11.12L62.55 11.12Q63.77 10.43 65.28 10.43L65.28 10.43L65.28 10.43Q66.50 10.43 67.17 10.96L67.17 10.96L67.17 10.96Q67.84 11.49 67.84 12.45L67.84 12.45ZM64.90 11.77L64.90 11.77Q64.06 11.77 63.37 12.59L63.37 12.59L63.37 12.59Q62.68 13.40 62.43 14.63L62.43 14.63L62.43 14.63Q64.02 14.56 64.90 14.04L64.90 14.04L64.90 14.04Q65.77 13.51 65.77 12.61L65.77 12.61L65.77 12.61Q65.77 12.24 65.53 12.01L65.53 12.01L65.53 12.01Q65.30 11.77 64.90 11.77L64.90 11.77ZM70.80 19.18L70.80 19.18Q70.13 19.18 69.81 18.77L69.81 18.77L69.81 18.77Q69.50 18.37 69.50 17.51L69.50 17.51L69.50 17.51Q69.50 16.84 69.84 14.74L69.84 14.74L69.84 14.74Q70.18 12.64 70.69 9.80L70.69 9.80L69.96 8.83L69.96 8.83Q70.46 8.46 71.07 8.22L71.07 8.22L71.07 8.22Q71.68 7.98 72.18 7.98L72.18 7.98L72.18 7.98Q72.73 7.98 72.97 8.19L72.97 8.19L72.97 8.19Q73.21 8.40 73.21 8.89L73.21 8.89L73.21 8.89Q73.21 9.18 73.10 9.74L73.10 9.74L73.10 9.74Q73.00 10.30 72.79 11.28L72.79 11.28L72.79 11.28Q72.38 13.12 72.14 14.59L72.14 14.59L72.14 14.59Q71.89 16.06 71.89 17.35L71.89 17.35L71.89 17.35Q71.89 17.84 71.98 18.12L71.98 18.12L71.98 18.12Q72.07 18.40 72.27 18.61L72.27 18.61L72.27 18.61Q71.96 18.89 71.57 19.03L71.57 19.03L71.57 19.03Q71.18 19.18 70.80 19.18L70.80 19.18ZM81.06 10.43L81.06 10.43Q81.83 10.43 82.42 10.84L82.42 10.84L82.42 10.84Q83.01 11.24 83.33 11.99L83.33 11.99L83.33 11.99Q83.65 12.74 83.65 13.72L83.65 13.72L83.65 13.72Q83.65 15.19 82.94 16.35L82.94 16.35L82.94 16.35Q82.24 17.51 80.99 18.17L80.99 18.17L80.99 18.17Q79.74 18.83 78.16 18.83L78.16 18.83L78.16 18.83Q77.55 18.83 76.99 18.72L76.99 18.72L76.99 18.72Q76.94 19.26 76.94 19.81L76.94 19.81L76.94 19.81Q76.94 20.26 77.04 20.55L77.04 20.55L77.04 20.55Q77.13 20.83 77.32 21.06L77.32 21.06L77.32 21.06Q77.03 21.32 76.64 21.48L76.64 21.48L76.64 21.48Q76.24 21.63 75.85 21.63L75.85 21.63L75.85 21.63Q75.18 21.63 74.87 21.27L74.87 21.27L74.87 21.27Q74.55 20.90 74.55 20.12L74.55 20.12L74.55 20.12Q74.55 19.60 74.90 17.31L74.90 17.31L74.90 17.31Q75.25 15.02 75.74 12.25L75.74 12.25L75.03 11.28L75.03 11.28Q75.56 10.89 76.15 10.66L76.15 10.66L76.15 10.66Q76.75 10.43 77.25 10.43L77.25 10.43L77.25 10.43Q77.80 10.43 78.03 10.64L78.03 10.64L78.03 10.64Q78.26 10.85 78.26 11.34L78.26 11.34L78.26 11.34Q78.26 11.69 78.09 12.56L78.09 12.56L78.23 12.63L78.23 12.63Q78.67 11.59 79.41 11.01L79.41 11.01L79.41 11.01Q80.15 10.43 81.06 10.43L81.06 10.43ZM77.08 17.75L77.08 17.75Q78.32 17.70 79.28 17.21L79.28 17.21L79.28 17.21Q80.23 16.73 80.77 15.91L80.77 15.91L80.77 15.91Q81.30 15.09 81.30 14.07L81.30 14.07L81.30 14.07Q81.30 13.29 80.97 12.85L80.97 12.85L80.97 12.85Q80.64 12.42 80.04 12.42L80.04 12.42L80.04 12.42Q79.16 12.42 78.37 13.73L78.37 13.73L78.37 13.73Q77.59 15.05 77.14 17.29L77.14 17.29L77.14 17.29Q77.11 17.44 77.08 17.75L77.08 17.75Z"></path></g><!----><!----></svg>